<svg id="Capa_1" data-name="Capa 1" xmlns="http://www.w3.org/2000/svg" viewBox="0 0 90 90"><defs><style>.cls-1{fill:#deca59;}.cls-2{fill:#d6bf25;}.cls-3{fill:#f9eb39;}.cls-4{fill:#ebdb81;}.cls-5{fill:#00225d;}.cls-6{fill:#f2e9a2;}.cls-7{fill:#fbf6c0;}.cls-8{fill:#e4503a;}.cls-9{fill:#f2f2f2;opacity:0.21;}</style></defs><title>America-90x90</title><path class="cls-1" d="M32.17,13.21a35.3,35.3,0,0,1,17.34-1.85c.46.74,1.24,1.18,1.7,1.91a33.91,33.91,0,0,0-17.56,1.11C33.21,13.93,32.83,13.32,32.17,13.21Z"/><path class="cls-1" d="M77.8,40c.6.57,1.14,1.2,1.78,1.73.24,1.52.29,3.05.42,4.58v1.24c-.09.72-.09,1.44-.15,2.16a36.33,36.33,0,0,1-1.24,7c-.45-.38-.83-.85-1.31-1.21a35.24,35.24,0,0,0,.44-15.26A2.14,2.14,0,0,0,77.8,40Z"/><path class="cls-1" d="M9.3,51.86c.62.57,1.15,1.23,1.81,1.75a1.6,1.6,0,0,1,.05-.21c.22,1.07.45,2.13.76,3.17A34.58,34.58,0,0,0,16,65.63a1.92,1.92,0,0,1-.43-.32c-.73-.76-1.48-1.51-2.22-2.26a4.19,4.19,0,0,0-1.06-.91A36.15,36.15,0,0,1,9.3,51.86Z"/><path class="cls-1" d="M24.62,75a4.17,4.17,0,0,1-.59-.67,34.13,34.13,0,0,0,11.84,5.79c.58.74,1.38,1.28,1.9,2.07a34.71,34.71,0,0,1-9.47-3.3,1.33,1.33,0,0,0-.32-.52C26.85,77.28,25.75,76.13,24.62,75Z"/><path class="cls-2" d="M49.51,11.36a34.43,34.43,0,0,1,5.94,1.4A35.47,35.47,0,0,1,70.86,22.9a36,36,0,0,1,8.72,18.83c-.64-.53-1.18-1.16-1.78-1.73a2.14,2.14,0,0,1-.06.27,34.52,34.52,0,0,0-7.51-15.66,34,34,0,0,0-14.36-10,37.49,37.49,0,0,0-4.66-1.32C50.75,12.54,50,12.1,49.51,11.36Z"/><path class="cls-2" d="M12.3,62.14a4.19,4.19,0,0,1,1.06.91c.74.75,1.49,1.5,2.22,2.26a1.92,1.92,0,0,0,.43.32c.51.71,1,1.45,1.51,2.14A34.36,34.36,0,0,0,21.2,71.9c.89.87,1.87,1.65,2.83,2.45a4.17,4.17,0,0,0,.59.67c1.13,1.11,2.23,2.26,3.36,3.37a1.33,1.33,0,0,1,.32.52A35.89,35.89,0,0,1,12.3,62.14Z"/><path class="cls-3" d="M33.65,14.38a33.91,33.91,0,0,1,17.56-1.11,37.49,37.49,0,0,1,4.66,1.32,34,34,0,0,1,14.36,10,34.52,34.52,0,0,1,7.51,15.66,35.24,35.24,0,0,1-.44,15.26,34.32,34.32,0,0,1-15.84,21.1,33.56,33.56,0,0,1-13.54,4.44,34,34,0,0,1-4,.17,33.33,33.33,0,0,1-8-1.1A34.13,34.13,0,0,1,24,74.35c-1-.8-1.94-1.58-2.83-2.45a34.36,34.36,0,0,1-3.68-4.13c-.54-.69-1-1.43-1.51-2.14a34.58,34.58,0,0,1-4.09-9.06c-.31-1-.54-2.1-.76-3.17A34.62,34.62,0,0,1,15.55,29a34.17,34.17,0,0,1,7.58-8.75A33.72,33.72,0,0,1,33.65,14.38Zm9.07-.09a32,32,0,0,0-17.46,6.44A32.65,32.65,0,0,0,14,36.5a33.11,33.11,0,0,0-.3,19.8A32.6,32.6,0,0,0,35.24,78.11a31.9,31.9,0,0,0,22.19-1.32A32.55,32.55,0,0,0,76.29,52.68a33.28,33.28,0,0,0-.28-13A32.67,32.67,0,0,0,57.58,17,31.92,31.92,0,0,0,42.72,14.29Z"/><path class="cls-3" d="M33.53,19A29.36,29.36,0,0,1,64.8,24.89c-1.9,1.93-3.83,3.85-5.72,5.8a16.54,16.54,0,0,0-2.56-.9,9.07,9.07,0,0,0,.14-.91c-.26-.06-.62,0-.78-.25a3.12,3.12,0,0,1,0-.68l-.24.05c.25-.49-.35-.74-.46-1.14a2.1,2.1,0,0,0-1.49-.44c-.36.11-.47.53-.48.87a.9.9,0,0,0,.46.91c.16.12.38.14.49.31a4.61,4.61,0,0,1,.75,1,.63.63,0,0,1-.24.78,7.56,7.56,0,0,1-.91.32,4.62,4.62,0,0,0-.05.65c.27,0,.6.07.74.35s0,.49.1.7a1.64,1.64,0,0,0,.94.73c.1-.26.15-.56.4-.72S56,32,56,31.91a16.5,16.5,0,0,1,2.35.95A37.44,37.44,0,0,1,60,37.67a24.14,24.14,0,0,0-4.66,8.65,33.28,33.28,0,0,0-1.32,5.75,34.89,34.89,0,0,0-.22,5.21h4.55a17.35,17.35,0,0,1,0-3h2a38.23,38.23,0,0,1-2.1,6.53,44.69,44.69,0,0,1-5.57,1.92,7.06,7.06,0,0,0,1.61-3.61,9.8,9.8,0,0,0-3.22-3.09c.14-.32.28-.64.44-1a17.12,17.12,0,0,0-2.2-2.69,2.76,2.76,0,0,0-.06-.71c-.35-.56-1-.71-1.55-1.06a1.7,1.7,0,0,1-.63-1.19.8.8,0,0,1,.34-.76,5.06,5.06,0,0,1,1.4-.36.89.89,0,0,0-.92-.5c-.65.09-1.14.63-1.78.74-.13,0-.22-.09-.31-.15a1.55,1.55,0,0,1-.55-1,11.24,11.24,0,0,1,.18-1.92,1.56,1.56,0,0,1,.6-1.14,3.78,3.78,0,0,1,1.6-.77,3.4,3.4,0,0,1,.61.79c.43.18.71-.25,1-.44s.49.21.77.17.14-.38.18-.57c.26-.23.55-.42.8-.66s-.16-.57-.25-.84l.32,0c0-.42,0-.85,0-1.27a8.29,8.29,0,0,0,.76-.7c.14-.1.13-.32.3-.4.56-.27,1.23-.11,1.8-.37.2-.08.18-.32.17-.5a.88.88,0,0,0,.58-.53A2.71,2.71,0,0,1,55.67,37a2.64,2.64,0,0,0-.5-.38c.12-.11.27-.24.17-.42a3.31,3.31,0,0,0-.92-.69c-.21-.14-.47-.28-.53-.55a2.13,2.13,0,0,0,.87-.38c0-.17.06-.37,0-.52s-.33-.22-.48-.36,0-.4-.16-.54a1.89,1.89,0,0,0-1.22-.57c-.59.41-.69,1.38-1.48,1.51v.25l-.47-.2c-.1-.15-.17-.36-.36-.41s-.39-.06-.59-.1a1.19,1.19,0,0,1,.15-.35c-.25-.18-.57-.31-.68-.61,0-.26.34-.38.4-.63a2.41,2.41,0,0,0,0-.38,1.79,1.79,0,0,1,.44-.34.9.9,0,0,1,.51-.74c.73-.29,1.61,0,2.27-.52-.07-.14-.19-.27-.13-.44s.56-.45.51-.83a.37.37,0,0,0-.26-.48,1.61,1.61,0,0,1-.94-.36c-.09.21,0,.45-.1.67l-.25.05a3.86,3.86,0,0,0-.12-.57c-.09-.14-.27-.17-.42-.23a1.33,1.33,0,0,0-.28-.6,1.09,1.09,0,0,0-.21-.45l-.34.15c.08.22.14.56-.11.7a3.46,3.46,0,0,1-2,.15c-.24,0-.36-.27-.59-.32-.57-.12-1.12.36-1.67.11-.24-.19-.64-.41-.5-.78A6,6,0,0,1,43.88,25c-.85-.1-1.67.49-2.5.16-1.16-.35-1.76-1.48-2.55-2.3a1.27,1.27,0,0,0-1.19-.3c-.82.13-1.49.69-2.29.89-.33.6.28,1.17.15,1.78-.5.05-1,.06-1.49.11-.28.76.93.88.8,1.59-.53.43-1.29.37-1.82.8a1,1,0,0,0-.39.73,2.55,2.55,0,0,0,.86.32l-.39.43.18.27c-1.08.38-2.14.78-3.21,1.2-1.9-1.92-3.79-3.86-5.71-5.78A29.57,29.57,0,0,1,33.53,19Z"/><path class="cls-3" d="M22.78,26.46c1.93,1.93,3.84,3.88,5.76,5.82a38.78,38.78,0,0,0-1,3.8,10.73,10.73,0,0,0-6.76,3.52,10.51,10.51,0,0,0-1.12,12.53,10.78,10.78,0,0,0,7.4,5c.42,1.49.94,2.94,1.5,4.38-1.91,2-3.85,3.86-5.74,5.82a30.24,30.24,0,0,1,0-40.83Z"/><path class="cls-3" d="M66.36,26.46a30.24,30.24,0,0,1,0,40.83c-1.93-2-3.85-3.91-5.79-5.86a38.37,38.37,0,0,0,2.16-7.11H66.1a17.35,17.35,0,0,1,.05,3h4.54a30.6,30.6,0,0,0-.24-5.41,33.06,33.06,0,0,0-2.76-9.29,19,19,0,0,0-5.42-7l-.42.33c-.35-1.23-.8-2.43-1.27-3.63C62.49,30.34,64.43,28.41,66.36,26.46Z"/><path class="cls-3" d="M30.76,32.86c1.35-.47,2.72-.9,4.07-1.37,1,.29,2,.43,2.93.64.37.08.81.26.86.7a2.27,2.27,0,0,1,1,1.76c0,1.3-.68,2.49-.63,3.79,0,.23,0,.46.07.68l-.24.09a5.89,5.89,0,0,1,1.08,2.53l-.87.32c.26.55.79.9,1.12,1.4.15.22.18.51.31.74s-.25.72-.06,1.06.4.19.62.21a.68.68,0,0,0,.39-.11c-.56-1.13-.09-2.45-.57-3.6a2,2,0,0,0-.47-.65c.22-.17.49-.1.74-.1a9.7,9.7,0,0,1,1,5c0,.35-.05.71,0,1.06a4.15,4.15,0,0,0,2.91,2.45,7.16,7.16,0,0,1,1.14.21,2.38,2.38,0,0,1,.92.59c-.5.13-.65.68-.82,1.1a3,3,0,0,1-.6.51l-.27-.07c-.15.24.08.48.09.73a.83.83,0,0,1-.53.83c-.48.28-1.1.41-1.44.88a1,1,0,0,0,.18,1.15c-.37.25-.93.19-1.13.65a13.69,13.69,0,0,0,1.23,3.6,5,5,0,0,1,.52,1.44,5.51,5.51,0,0,1-1,2.72A32.45,32.45,0,0,1,37.12,63a40,40,0,0,1-6.4-2.13c-.45-1.18-.78-2.41-1.13-3.63A10.85,10.85,0,0,0,37,53.42l-3.57-3.68a6.18,6.18,0,0,1-2,1.82,5.53,5.53,0,0,1-4.06.51,5.65,5.65,0,0,1-1.15-10.45,5.42,5.42,0,0,1,3.85-.48,5.74,5.74,0,0,1,3.37,2.4c1.21-1.22,2.42-2.43,3.61-3.66a10.86,10.86,0,0,0-7.19-3.82C30.16,35,30.47,33.92,30.76,32.86Z"/><path class="cls-3" d="M60.74,48.5a16.56,16.56,0,0,1,1.66-3.87A16.09,16.09,0,0,1,64,48.5Z"/><path class="cls-3" d="M30.08,63a38.28,38.28,0,0,0,10.6,2.76c.57.06,1.14.1,1.72.14-.18.26-.1.62-.33.85a4.61,4.61,0,0,0-1,2.5,13.61,13.61,0,0,0,0,3.06c.17.32.3.76.71.84a2.66,2.66,0,0,0,1-2c0-.42.46-.45.75-.57s.15-.39.16-.6c0-.5.43-.82.81-1s.63-.45,1-.46A3.5,3.5,0,0,0,47.72,67c.33-.42.67-.83,1-1.23A38.2,38.2,0,0,0,59,63C61,65,62.89,66.91,64.8,68.86a29.71,29.71,0,0,1-8.55,5.65,29.31,29.31,0,0,1-20.37,1.11,29.78,29.78,0,0,1-11.55-6.75C26.22,66.9,28.17,65,30.08,63Z"/><path class="cls-4" d="M21.71,19.35a35.56,35.56,0,0,1,10.46-6.14c.66.11,1,.72,1.48,1.17a33.72,33.72,0,0,0-10.52,5.86,2.19,2.19,0,0,0-.65-.7A3.61,3.61,0,0,0,21.71,19.35Z"/><path class="cls-4" d="M9,46.1c.42.4.82.8,1.23,1.21a1.59,1.59,0,0,1,.37.81,34.67,34.67,0,0,0,.58,5.28,1.6,1.6,0,0,0-.05.21c-.66-.52-1.19-1.18-1.81-1.75C9.12,50.56,9,49.25,9,48Z"/><path class="cls-4" d="M69.54,70a34.47,34.47,0,0,0,7.76-14.5c.48.36.86.83,1.31,1.21a36.14,36.14,0,0,1-7.47,13.89,1.89,1.89,0,0,0-.65-.52A2.78,2.78,0,0,0,69.54,70Z"/><path class="cls-4" d="M35.87,80.14a33.33,33.33,0,0,0,8,1.1c.47.56,1,1,1.48,1.59a35.16,35.16,0,0,1-7.59-.62C37.25,81.42,36.45,80.88,35.87,80.14Z"/><path class="cls-5" d="M42.72,14.29A31.92,31.92,0,0,1,57.58,17,32.67,32.67,0,0,1,76,39.64a33.28,33.28,0,0,1,.28,13A32.55,32.55,0,0,1,57.43,76.79a31.9,31.9,0,0,1-22.19,1.32A32.6,32.6,0,0,1,13.7,56.3,33.11,33.11,0,0,1,14,36.5,32.65,32.65,0,0,1,25.26,20.73,32,32,0,0,1,42.72,14.29ZM33.53,19a29.57,29.57,0,0,0-9.2,5.93c1.92,1.92,3.81,3.86,5.71,5.78,1.07-.42,2.13-.82,3.21-1.2l-.18-.27.39-.43a2.55,2.55,0,0,1-.86-.32,1,1,0,0,1,.39-.73c.53-.43,1.29-.37,1.82-.8.13-.71-1.08-.83-.8-1.59.49,0,1-.06,1.49-.11.13-.61-.48-1.18-.15-1.78.8-.2,1.47-.76,2.29-.89a1.27,1.27,0,0,1,1.19.3c.79.82,1.39,1.95,2.55,2.3.83.33,1.65-.26,2.5-.16a6,6,0,0,0,1.7,1.86c-.14.37.26.59.5.78.55.25,1.1-.23,1.67-.11.23.05.35.32.59.32a3.46,3.46,0,0,0,2-.15c.25-.14.19-.48.11-.7l.34-.15a1.09,1.09,0,0,1,.21.45,1.33,1.33,0,0,1,.28.6c.15.06.33.09.42.23a3.86,3.86,0,0,1,.12.57l.25-.05c.08-.22,0-.46.1-.67a1.61,1.61,0,0,0,.94.36.37.37,0,0,1,.26.48c.05.38-.35.55-.51.83s.06.3.13.44c-.66.5-1.54.23-2.27.52a.9.9,0,0,0-.51.74,1.79,1.79,0,0,0-.44.34,2.41,2.41,0,0,1,0,.38c-.06.25-.35.37-.4.63.11.3.43.43.68.61a1.19,1.19,0,0,0-.15.35c.2,0,.4.05.59.1s.26.26.36.41l.47.2v-.25c.79-.13.89-1.1,1.48-1.51a1.89,1.89,0,0,1,1.22.57c.16.14,0,.4.16.54s.33.23.48.36,0,.35,0,.52a2.13,2.13,0,0,1-.87.38c.06.27.32.41.53.55a3.31,3.31,0,0,1,.92.69c.1.18-.05.31-.17.42a2.64,2.64,0,0,1,.5.38,2.71,2.71,0,0,0-.87,1.26.88.88,0,0,1-.58.53c0,.18,0,.42-.17.5-.57.26-1.24.1-1.8.37-.17.08-.16.3-.3.4a8.29,8.29,0,0,1-.76.7c0,.42,0,.85,0,1.27l-.32,0c.09.27.42.53.25.84s-.54.43-.8.66c0,.19,0,.46-.18.57s-.49-.33-.77-.17-.6.62-1,.44a3.4,3.4,0,0,0-.61-.79,3.78,3.78,0,0,0-1.6.77,1.56,1.56,0,0,0-.6,1.14,11.24,11.24,0,0,0-.18,1.92,1.55,1.55,0,0,0,.55,1c.09.06.18.19.31.15.64-.11,1.13-.65,1.78-.74a.89.89,0,0,1,.92.5,5.06,5.06,0,0,0-1.4.36.8.8,0,0,0-.34.76,1.7,1.7,0,0,0,.63,1.19c.52.35,1.2.5,1.55,1.06a2.76,2.76,0,0,1,.06.71,17.12,17.12,0,0,1,2.2,2.69c-.16.32-.3.64-.44,1a9.8,9.8,0,0,1,3.22,3.09,7.06,7.06,0,0,1-1.61,3.61,44.69,44.69,0,0,0,5.57-1.92,38.23,38.23,0,0,0,2.1-6.53h-2a17.35,17.35,0,0,0,0,3H53.83a34.89,34.89,0,0,1,.22-5.21,33.28,33.28,0,0,1,1.32-5.75A24.14,24.14,0,0,1,60,37.67a37.44,37.44,0,0,0-1.66-4.81A16.5,16.5,0,0,0,56,31.91c0,.12.07.31-.08.37s-.3.46-.4.72a1.64,1.64,0,0,1-.94-.73c-.14-.21.06-.49-.1-.7s-.47-.31-.74-.35a4.62,4.62,0,0,1,.05-.65,7.56,7.56,0,0,0,.91-.32.63.63,0,0,0,.24-.78,4.61,4.61,0,0,0-.75-1c-.11-.17-.33-.19-.49-.31a.9.9,0,0,1-.46-.91c0-.34.12-.76.48-.87a2.1,2.1,0,0,1,1.49.44c.11.4.71.65.46,1.14l.24-.05a3.12,3.12,0,0,0,0,.68c.16.27.52.19.78.25a9.07,9.07,0,0,1-.14.91,16.54,16.54,0,0,1,2.56.9c1.89-2,3.82-3.87,5.72-5.8A29.36,29.36,0,0,0,33.53,19Zm-10.75,7.5a30.21,30.21,0,0,0,0,40.83c1.89-2,3.83-3.87,5.74-5.82C28,60,27.45,58.58,27,57.09a10.78,10.78,0,0,1-7.4-5A10.51,10.51,0,0,1,20.75,39.6a10.73,10.73,0,0,1,6.76-3.52,38.78,38.78,0,0,1,1-3.8C26.62,30.34,24.71,28.39,22.78,26.46Zm43.58,0c-1.93,1.95-3.87,3.88-5.78,5.84.47,1.2.92,2.4,1.27,3.63l.42-.33a19,19,0,0,1,5.42,7,33.06,33.06,0,0,1,2.76,9.29,30.6,30.6,0,0,1,.24,5.41H66.15a17.35,17.35,0,0,0-.05-3H62.72a38.37,38.37,0,0,1-2.16,7.11c1.94,2,3.86,3.9,5.79,5.86a30.26,30.26,0,0,0,0-40.83Zm-35.6,6.4c-.29,1.06-.6,2.13-.89,3.2a10.86,10.86,0,0,1,7.19,3.82c-1.19,1.23-2.4,2.44-3.61,3.66a5.74,5.74,0,0,0-3.37-2.4,5.42,5.42,0,0,0-3.85.48,5.6,5.6,0,0,0-2.83,3.56,5.64,5.64,0,0,0,4,6.89,5.53,5.53,0,0,0,4.06-.51,6.18,6.18,0,0,0,2-1.82L37,53.42a10.85,10.85,0,0,1-7.41,3.78c.35,1.22.68,2.45,1.13,3.63A40,40,0,0,0,37.12,63a32.45,32.45,0,0,0,6.28.82,5.51,5.51,0,0,0,1-2.72,5,5,0,0,0-.52-1.44A13.69,13.69,0,0,1,42.61,56c.2-.46.76-.4,1.13-.65a1,1,0,0,1-.18-1.15c.34-.47,1-.6,1.44-.88a.83.83,0,0,0,.53-.83c0-.25-.24-.49-.09-.73l.27.07a3,3,0,0,0,.6-.51c.17-.42.32-1,.82-1.1a2.38,2.38,0,0,0-.92-.59,7.16,7.16,0,0,0-1.14-.21A4.15,4.15,0,0,1,42.16,47c0-.35,0-.71,0-1.06a9.7,9.7,0,0,0-1-5c-.25,0-.52-.07-.74.1a2,2,0,0,1,.47.65c.48,1.15,0,2.47.57,3.6a.68.68,0,0,1-.39.11c-.22,0-.51,0-.62-.21s.27-.71.06-1.06-.16-.52-.31-.74c-.33-.5-.86-.85-1.12-1.4l.87-.32a5.89,5.89,0,0,0-1.08-2.53l.24-.09c0-.22-.05-.45-.07-.68-.05-1.3.66-2.49.63-3.79a2.27,2.27,0,0,0-1-1.76c0-.44-.49-.62-.86-.7-1-.21-2-.35-2.93-.64C33.48,32,32.11,32.39,30.76,32.86Zm27.71,8.39a30.22,30.22,0,0,0-3.39,9.54,28.46,28.46,0,0,0-.45,5.68h2.9a14.79,14.79,0,0,1,.2-3H66.8a15.56,15.56,0,0,1,.2,3h2.91a28.13,28.13,0,0,0-.5-5.86,33,33,0,0,0-1.81-6.22,19.69,19.69,0,0,0-5.32-7.73A17,17,0,0,0,58.47,41.25Zm-36-2.2a9.84,9.84,0,0,0-3.46,5.76,9.64,9.64,0,0,0,.74,5.89,9.93,9.93,0,0,0,16.06,2.74c-.78-.83-1.57-1.64-2.37-2.45a6.37,6.37,0,0,1-7.87,1.24,6.5,6.5,0,0,1,0-11.23,6.33,6.33,0,0,1,7.9,1.29c.81-.8,1.61-1.62,2.41-2.45a10.07,10.07,0,0,0-6.94-3A9.93,9.93,0,0,0,22.51,39.05Zm7.57,24c-1.91,1.95-3.86,3.86-5.75,5.83a29.78,29.78,0,0,0,11.55,6.75,29.31,29.31,0,0,0,20.37-1.11,29.71,29.71,0,0,0,8.55-5.65C62.89,66.91,61,65,59,63a38.2,38.2,0,0,1-10.28,2.73c-.36.4-.7.81-1,1.23a3.5,3.5,0,0,1-2.11,1.51c-.39,0-.68.3-1,.46s-.84.53-.81,1c0,.21.1.52-.16.6s-.76.15-.75.57a2.66,2.66,0,0,1-1,2c-.41-.08-.54-.52-.71-.84a13.61,13.61,0,0,1,0-3.06,4.61,4.61,0,0,1,1-2.5c.23-.23.15-.59.33-.85-.58,0-1.15-.08-1.72-.14A38.28,38.28,0,0,1,30.08,63Z"/><path class="cls-5" d="M59.75,49.34a16.1,16.1,0,0,1,2.65-6.26A16.25,16.25,0,0,1,65,49.33Zm1-.84H64a16.09,16.09,0,0,0-1.64-3.87A16.56,16.56,0,0,0,60.74,48.5Z"/><path class="cls-5" d="M69.93,76.4a3.39,3.39,0,0,1,4,.64,3.47,3.47,0,0,1,.48,4.21,3.39,3.39,0,0,1-2.56,1.62h-.7a3.44,3.44,0,0,1-1.19-6.47Zm.81.4a2.76,2.76,0,0,0-.67,5A2.69,2.69,0,0,0,72.4,82,2.77,2.77,0,0,0,72.64,77,2.71,2.71,0,0,0,70.74,76.8Z"/><path class="cls-5" d="M69.93,77.6h1.58a1.82,1.82,0,0,1,1,.22,1,1,0,0,1,.09,1.53,1.51,1.51,0,0,1-.63.32,1.16,1.16,0,0,1,.45.4c.25.39.46.81.69,1.22H72a9.46,9.46,0,0,0-.66-1.21.59.59,0,0,0-.47-.25c0,.48,0,1,0,1.46h-.91Zm.91.68v.88a2.16,2.16,0,0,0,.91-.12.4.4,0,0,0,0-.66A1.86,1.86,0,0,0,70.84,78.28Z"/><path class="cls-6" d="M14.15,28.23a35.75,35.75,0,0,1,7.56-8.88,3.61,3.61,0,0,1,.77.19,2.19,2.19,0,0,1,.65.7A34.17,34.17,0,0,0,15.55,29a2.34,2.34,0,0,0-.57-.64A1.79,1.79,0,0,0,14.15,28.23Z"/><path class="cls-6" d="M9,45.91c0-1.2.12-2.41.28-3.6.44.53,1,1,1.43,1.47a34.9,34.9,0,0,0-.11,4.34,1.59,1.59,0,0,0-.37-.81C9.8,46.9,9.4,46.5,9,46.1Z"/><path class="cls-6" d="M61.46,76.63A34.42,34.42,0,0,0,69.54,70a2.78,2.78,0,0,1,.95.08,1.89,1.89,0,0,1,.65.52,36,36,0,0,1-8.53,7.18C62.23,77.41,61.84,77,61.46,76.63Z"/><path class="cls-6" d="M43.88,81.24a34,34,0,0,0,4-.17c.45.49.95.93,1.38,1.45a34.66,34.66,0,0,1-3.94.31C44.91,82.26,44.35,81.8,43.88,81.24Z"/><path class="cls-7" d="M9.26,42.31a35.87,35.87,0,0,1,4.89-14.08,1.79,1.79,0,0,1,.83.12,2.34,2.34,0,0,1,.57.64,34.46,34.46,0,0,0-4.86,14.79C10.21,43.3,9.7,42.84,9.26,42.31Z"/><path class="cls-7" d="M47.92,81.07a33.56,33.56,0,0,0,13.54-4.44c.38.39.77.78,1.15,1.18A35,35,0,0,1,49.3,82.52C48.87,82,48.37,81.56,47.92,81.07Z"/><path class="cls-8" d="M58.47,41.25a17,17,0,0,1,3.81-4.59,19.69,19.69,0,0,1,5.32,7.73,33,33,0,0,1,1.81,6.22,28.13,28.13,0,0,1,.5,5.86H67a15.56,15.56,0,0,0-.2-3H57.73a14.79,14.79,0,0,0-.2,3h-2.9a28.46,28.46,0,0,1,.45-5.68A30.22,30.22,0,0,1,58.47,41.25Zm1.28,8.09H65a16.25,16.25,0,0,0-2.64-6.25A16.1,16.1,0,0,0,59.75,49.34Z"/><path class="cls-8" d="M22.51,39.05A9.93,9.93,0,0,1,29,36.83a10.07,10.07,0,0,1,6.94,3c-.8.83-1.6,1.65-2.41,2.45A6.33,6.33,0,0,0,25.62,41a6.5,6.5,0,0,0,0,11.23A6.37,6.37,0,0,0,33.48,51c.8.81,1.59,1.62,2.37,2.45A9.93,9.93,0,0,1,19.79,50.7a9.64,9.64,0,0,1-.74-5.89A9.84,9.84,0,0,1,22.51,39.05Z"/><rect class="cls-9" width="1" height="1"/></svg>