<?xml version="1.0" encoding="utf-8"?>
<!-- Generator: Adobe Illustrator 23.1.1, SVG Export Plug-In . SVG Version: 6.00 Build 0)  -->
<svg version="1.1" id="Layer_1" xmlns="http://www.w3.org/2000/svg" xmlns:xlink="http://www.w3.org/1999/xlink" x="0px" y="0px"
	 viewBox="0 0 250 290" style="enable-background:new 0 0 250 290;" xml:space="preserve">
<style type="text/css">
	.st0{fill:#FFFFFF;}
	.st1{fill:#002856;}
	.st2{fill:#B0B3B2;}
	.st3{fill:#CE0E2D;}
	.st4{fill:#FFC629;}
	.st5{fill:#3DAE2B;}
	.st6{fill:#C1531B;}
</style>
<g>
	<g>
		<g>
			<g>
				<g>
					<g>
						<path class="st0" d="M125,274.46c-54.52,0-98.88-44.35-98.88-98.87c0-27.21,11.44-53.52,31.38-72.19l1.12-1.05L57.89,101
							c-4.96-9.26-5.31-15.97-5.3-17.8l0.01-1.22c0.13-6.8,2.75-12.04,4.93-15.23c2.18-3.16,4.27-5,5.07-5.64
							c4.07-3.36,9.34-5.13,15.25-5.13c7.9,0.04,14.64,2.89,16.52,3.76c4.52,2.02,8.03,2.51,10.19,2.56l1.48,0.04l0.47-1.41
							c1.05-3.17,2.94-6.04,5.47-8.31l6.4-5.74l-13.49,3.79l0.78-5.17l0.56-3.01c0.99-5.18,4.43-9.75,9.95-13.21
							c0.89-0.56,1.83-1.08,2.78-1.56l1.1-0.55V15.82l5.88,0.76c2.48,0.32,4.77,1.08,6.81,2.25c1.04,0.59,2.03,1.3,2.95,2.11
							c0.7,0.62,1.16,1.23,1.7,2.07l0.07,0.11l0.06,0.12c1.22,2.26,1.17,4.6,1.13,6.47c-0.01,0.33-0.03,0.64-0.06,0.96
							c-0.04,0.49-0.07,0.97-0.07,1.47l0.01,1.39l1.72,0.62c0.61,0.22,1.14,0.4,1.55,0.68c2.47,1.68,4.38,3.87,5.51,6.35
							c0.46,1.04,0.77,2.07,0.96,3.11c0.18,0.93,0.29,1.78,0.32,2.63l0,0.39c0,0.48-0.04,0.93-0.09,1.33l-0.12,0.87
							c-0.05,0.33-0.12,0.7-0.2,1.1c-0.18,0.81-0.39,1.51-0.65,2.16c-0.5,1.24-1.18,2.42-2.03,3.54c-0.69,0.91-1.4,1.59-2.29,2.23
							l-3.5,2.49l4.16,1.08c0.56,0.15,1.16,0.22,1.82,0.22c1.2,0,2.35-0.23,3.36-0.44c2.46-0.5,4.6-1.2,6.43-2.1
							c0.09-0.04,0.28-0.13,0.28-0.13l0.14-0.07c0.12-0.05,0.97-0.42,0.97-0.42c1.26-0.51,2.47-0.94,3.67-1.31
							c4-1.24,7.86-1.87,11.48-1.87c5.89,0,11.11,1.72,15.13,4.99c0.15,0.11,0.23,0.18,0.31,0.25l0.32,0.27
							c0.36,0.31,0.79,0.71,1.25,1.17c1.24,1.24,2.37,2.62,3.37,4.1c2.05,2.99,4.56,7.9,4.89,14.31l0.02,0.4l0.04,0.08v1.33
							c0,0.14,0,0.23,0,0.33c-0.01,1.9-0.41,8.64-5.3,17.79l-0.73,1.35l1.12,1.05c19.95,18.66,31.39,44.98,31.39,72.19
							C223.88,230.1,179.52,274.46,125,274.46z"/>
						<path class="st0" d="M122.07,18.09l1.42,0.18l2.2,0.28c2.22,0.29,4.26,0.96,6.08,2c0.92,0.53,1.8,1.16,2.62,1.88
							c0.47,0.42,0.81,0.84,1.34,1.66l0.03,0.04l0.02,0.04c0.97,1.8,0.93,3.76,0.89,5.48c-0.01,0.29-0.03,0.57-0.05,0.85
							c-0.04,0.48-0.08,1.02-0.08,1.63l0.01,2.79l2.62,0.95l0.42,0.15c0.46,0.16,0.9,0.32,1.09,0.45c2.17,1.48,3.84,3.39,4.83,5.54
							c0.37,0.85,0.64,1.73,0.81,2.62l0.01,0.03l0.01,0.03c0.16,0.79,0.25,1.54,0.28,2.25l0,0.09l0,0.07l0,0.16
							c0,0.41-0.04,0.78-0.08,1.12l0,0.01l0,0.03l-0.04,0.29c-0.02,0.15-0.04,0.31-0.06,0.47c-0.04,0.3-0.1,0.63-0.18,0.97
							c-0.15,0.69-0.33,1.29-0.56,1.85c-0.43,1.06-1.02,2.09-1.76,3.07c-0.56,0.74-1.14,1.3-1.86,1.81l-7,4.98l8.32,2.15
							c0.72,0.19,1.5,0.28,2.32,0.28c1.4,0,2.71-0.26,3.76-0.48l0.06-0.01c2.56-0.52,4.86-1.27,6.85-2.25
							c0.06-0.03,0.11-0.05,0.14-0.06l0.11-0.05l0.09-0.04l0.02-0.01c0.12-0.05,0.26-0.11,0.45-0.19c0.15-0.06,0.32-0.14,0.51-0.22
							l0.02-0.01l0.02-0.01c1.12-0.45,2.27-0.86,3.43-1.22c3.8-1.18,7.46-1.77,10.93-1.77c5.38,0,10.17,1.57,13.83,4.54l0.07,0.05
							l0.07,0.05c0.04,0.03,0.07,0.05,0.1,0.08l0.06,0.05l0.06,0.05c0.07,0.06,0.14,0.12,0.25,0.21c0.21,0.18,0.58,0.51,1.12,1.05
							c1.15,1.15,2.2,2.44,3.14,3.82c1.9,2.77,4.23,7.32,4.54,13.27l0.04,0.8l0.01,0.03v0.28v0.6v0.04l0,0.04c0,0.07,0,0.13,0,0.2
							l0,0.04l0,0.04c-0.01,1.73-0.39,8.06-5.07,16.8l-1.45,2.71l2.24,2.1c9.6,8.98,17.16,19.6,22.47,31.55
							c5.5,12.37,8.28,25.56,8.28,39.18c0,53.41-43.46,96.87-96.88,96.87c-53.42,0-96.88-43.46-96.88-96.87
							c0-13.62,2.79-26.8,8.28-39.18c5.31-11.95,12.87-22.57,22.46-31.55l2.24-2.1l-1.45-2.71c-4.74-8.85-5.08-15.13-5.07-16.87
							v-0.3l0-0.16l0.01-0.7c0.12-6.33,2.56-11.19,4.58-14.15c2.03-2.95,3.95-4.63,4.68-5.22l0.02-0.02l0.02-0.02
							c3.69-3.04,8.51-4.65,13.99-4.65c7.45,0.04,13.86,2.74,15.65,3.57l0.02,0.01l0.02,0.01c4.8,2.15,8.59,2.67,10.93,2.72
							l2.96,0.07l0.93-2.81c0.94-2.84,2.64-5.42,4.91-7.45l12.81-11.49l-16.56,4.66l-0.36,0.1l-1.87,0.53l0.31-2.04l0.56-2.99
							c0.88-4.63,4.01-8.74,9.04-11.89c0.84-0.53,1.72-1.02,2.62-1.47l2.2-1.11v-2.46v-6.41V18.09 M118.07,13.54v5.98v6.41
							c-0.92,0.46-1.91,1.01-2.94,1.65c-6.01,3.76-9.76,8.78-10.86,14.54l-0.57,3.08l-1.23,8.23l7.83-2.2l0.36-0.1
							c-2.75,2.46-4.85,5.61-6.04,9.17c-1.77-0.04-5.06-0.44-9.4-2.38c-2.02-0.94-9.07-3.9-17.31-3.94h-0.05
							c-6.39,0-12.09,1.92-16.5,5.57c-0.9,0.72-3.15,2.7-5.47,6.07c-2.36,3.45-5.14,9.04-5.28,16.34l-0.01,0.74v0.19v0.3
							c-0.01,2.11,0.41,9.17,5.54,18.76c-19.69,18.42-32.01,44.62-32.01,73.65c0,55.62,45.25,100.87,100.88,100.87
							c55.62,0,100.88-45.25,100.88-100.87c0-29.03-12.33-55.23-32.02-73.65c5.04-9.41,5.53-16.41,5.54-18.68c0-0.14,0-0.26,0-0.39
							v-0.6v-1.19l-0.06-0.13c-0.35-6.84-3.01-12.07-5.24-15.33c-1.06-1.57-2.28-3.05-3.6-4.38c-0.51-0.51-0.97-0.95-1.38-1.29
							c-0.1-0.08-0.19-0.16-0.28-0.24c-0.12-0.11-0.25-0.21-0.37-0.31c-4.39-3.55-10.03-5.43-16.35-5.43l-0.04,0
							c-3.82,0-7.88,0.66-12.07,1.95c-1.26,0.38-2.53,0.83-3.75,1.33l-0.08,0.03l-0.07,0.03c-0.18,0.08-0.35,0.15-0.49,0.21
							c-0.2,0.08-0.37,0.16-0.5,0.22l-0.1,0.05l-0.06,0.03c-0.08,0.03-0.19,0.08-0.32,0.15c-1.83,0.9-3.89,1.52-5.89,1.92
							c-0.94,0.19-2.01,0.41-3.03,0.41c-0.45,0-0.9-0.04-1.32-0.15c1.06-0.76,1.92-1.6,2.72-2.65c0.96-1.27,1.73-2.6,2.29-3.99
							c0.31-0.75,0.56-1.57,0.76-2.49c0.1-0.44,0.17-0.86,0.23-1.25c0.03-0.18,0.05-0.35,0.07-0.52l0.04-0.29l0.01-0.05l0.01-0.05
							c0.05-0.44,0.1-0.97,0.1-1.58l0-0.19v-0.11l-0.01-0.16c-0.04-0.95-0.16-1.9-0.35-2.9c-0.22-1.19-0.58-2.37-1.08-3.51
							l-0.02-0.04l-0.02-0.04c-1.28-2.8-3.43-5.28-6.21-7.17c-0.74-0.5-1.56-0.74-2.39-1.05c0-0.8,0.11-1.56,0.13-2.37
							c0.04-2,0.1-4.74-1.37-7.47l-0.1-0.18l-0.11-0.17c-0.62-0.96-1.19-1.72-2.06-2.49c-1.01-0.89-2.11-1.68-3.28-2.35
							c-2.32-1.33-4.9-2.15-7.55-2.49l-2.2-0.29L118.07,13.54L118.07,13.54z"/>
					</g>
					<g>
						<g>
							<g>
								<g>
									<path class="st1" d="M145.36,47.04c-0.03-0.73-0.13-1.44-0.27-2.14c-0.15-0.82-0.4-1.62-0.73-2.38
										c-0.94-2.06-2.53-3.75-4.38-5.01c-2.44-1.65-4.76-2.23-4.88-2.26c0.18-0.68,0.29-1.43,0.29-2.27c0-0.77,0-1.56,0-2.34
										c0-1.99,0.25-4.06-0.73-5.87l-0.59-0.91c-0.06-0.08-0.11-0.16-0.19-0.24c-1.41-1.71-3.99-3.25-8.36-3.82l-2.2-0.28v9.83
										c-1.27,0.48-3.28,1.36-5.42,2.7c-3.48,2.18-7.45,5.69-8.47,11.06l-0.57,3.06l8.36-2.35c-0.77,2.74-0.95,5.08-0.95,6.65
										c0,1.25,0.11,2,0.13,2.09l0.39,2.52l2.33-1.05c0.48-0.23,1.73-0.56,2.72-0.73c0.51-0.1,0.98-0.17,1.31-0.22
										c0.18-0.03,0.31-0.04,0.4-0.06c0.05,0,0.08-0.01,0.1-0.02l0.36-0.03l1.25,0.15c1.84,0.2,3.53,0.6,4.77,0.96
										c0.61,0.18,1.08,0.34,1.42,0.46c0.31,0.1,0.37,0.15,0.52,0.19c0.02,0.01,0.03,0.01,0.05,0.02l0.34,0.14l0.91,0.71
										l0.07,0.05c0.11,0.09,0.38,0.31,0.73,0.63c0.49,0.45,1.12,1.06,1.64,1.7l1.02,1.27l1.51-0.83c0,0,0.04-0.07,0.07-0.07
										c0.05-0.03,0.11-0.06,0.19-0.1c0.27-0.17,0.55-0.34,0.81-0.53c1.38-0.93,2.63-2.07,3.65-3.39
										c0.64-0.84,1.18-1.76,1.58-2.75c0.22-0.52,0.37-1.07,0.5-1.64c0.06-0.29,0.12-0.59,0.16-0.88c0.04-0.26,0.07-0.51,0.1-0.77
										c0.04-0.32,0.07-0.63,0.07-0.97C145.36,47.2,145.36,47.12,145.36,47.04z"/>
									<g>
										<path class="st2" d="M118.31,52.25c1.63-0.74,5.13-1.19,5.13-1.19c1.68-6.81,5.04-10.71,5.04-10.71l-9.04,2.81
											C117.72,48.3,118.31,52.25,118.31,52.25z"/>
										<path class="st2" d="M125.46,51.18c3.98,0.42,7.21,1.72,7.21,1.72c3.71-6.12,10.67-6.27,10.67-6.27
											c-0.25-7.36-8.7-9.49-8.7-9.49C127.2,42.83,125.46,51.18,125.46,51.18z"/>
										<path class="st2" d="M134.43,54.03c0,0,1.56,1.18,2.78,2.72c0,0,5.78-3.2,6.08-8.25
											C143.3,48.49,137.91,48.49,134.43,54.03z"/>
										<path class="st0" d="M133.47,32.94v-5.58c0,0,0.1-4.54-8.18-5.62v8.98c0,0-12.26,3.66-13.93,12.74l18.56-5.24
											C129.91,38.23,133.47,37.37,133.47,32.94z"/>
									</g>
									<g>
										<path class="st1" d="M138.72,66.82c0,7.58-6.14,13.72-13.72,13.72c-7.58,0-13.72-6.14-13.72-13.72
											c0-7.58,6.15-13.73,13.72-13.73C132.58,53.09,138.72,59.24,138.72,66.82z"/>
										<path class="st1" d="M108.79,66.95c0-8.89,7.25-16.08,16.21-16.09l0,0c8.95,0.01,16.21,7.2,16.21,16.09l0,0
											c0,8.88-7.27,16.08-16.21,16.08l0,0C116.04,83.03,108.79,75.83,108.79,66.95L108.79,66.95z M113.36,66.95
											c0.01,6.36,5.21,11.52,11.64,11.54l0,0c6.43-0.01,11.62-5.17,11.63-11.54l0,0c-0.02-6.38-5.2-11.53-11.63-11.54l0,0
											C118.57,55.43,113.37,60.58,113.36,66.95L113.36,66.95z"/>
									</g>
									<path class="st3" d="M70.55,150.2l-0.02,0.04v50.64h0.19l-0.18,0.08c2.96,6.34,6.98,12.09,11.86,16.99l0.33,0.33v-85.41
										l-0.33,0.34C77.53,138.12,73.5,143.85,70.55,150.2z M94.72,227.46l0.09,0.06c3.72,2.17,7.68,3.95,11.86,5.29l0.25,0.08
										V128.64H94.72V227.46z M118.89,235.35l0.18,0.02c1.96,0.19,3.92,0.3,5.93,0.3c2,0,3.98-0.11,5.93-0.3l0.17-0.02V128.64
										h-12.21V235.35z M143.08,232.89l0.25-0.08c4.17-1.34,8.13-3.12,11.86-5.29l0.1-0.06v-98.82h-12.21V232.89z M179.46,150.2
										c-2.96-6.35-7-12.08-11.87-16.98l-0.33-0.33v85.39l0.33-0.32c4.86-4.9,8.9-10.65,11.87-16.99l0.01-50.72L179.46,150.2z"/>
									<g>
										<path class="st1" d="M146.67,95.84l-0.34,0.14L125,104.29l-21.68-8.45H83.95l3.08,3.28c0,0,0.03,0.02,0.12,0.14
											c0.7,0.81,3.78,4.83,3.76,10.23v52.31c0,2.86,0.7,5.58,1.82,8.11c2.66,5.91,7.71,10.84,13.01,14.8
											c4.34,3.23,8.84,5.81,12.41,7.63c3.29,1.69,5.3,2.54,6.14,2.87l0.7,0.27l0.71-0.27c0.82-0.33,2.83-1.18,6.12-2.87
											c3.57-1.83,8.07-4.4,12.41-7.63c5.3-3.96,10.35-8.88,13.02-14.8c1.12-2.52,1.81-5.24,1.81-8.11v-52.31
											c0-3.1,0.98-5.72,1.98-7.56c0.49-0.92,1-1.65,1.36-2.13c0.18-0.24,0.32-0.42,0.42-0.53c0.1-0.11,0.14-0.14,0.14-0.14
											l3.07-3.28H146.67z"/>
										<path class="st1" d="M124.88,195.78l-0.71-0.28c-0.85-0.33-2.86-1.19-6.16-2.88l0,0c-3.57-1.84-8.1-4.42-12.45-7.66l0,0
											c-5.32-3.99-10.41-8.94-13.11-14.93l0,0c-1.14-2.55-1.84-5.32-1.84-8.24l0,0v-52.29c0-0.05,0-0.08,0-0.09l0,0
											c0.01-5.24-3.01-9.18-3.69-9.96l0,0c-0.1-0.11-0.11-0.12-0.12-0.13l0,0l-3.58-3.81h20.17l21.61,8.42l21.22-8.27l0.35-0.13
											l0.05-0.02h20.18l-3.6,3.82c0,0,0,0-0.11,0.12l0,0c-0.09,0.11-0.24,0.29-0.41,0.52l0,0c-0.36,0.48-0.85,1.19-1.34,2.09
											l0,0c-0.96,1.8-1.93,4.34-1.95,7.35l0,0l0.01,0.02v52.36c0,2.92-0.71,5.68-1.84,8.24l0,0
											c-2.71,5.99-7.81,10.94-13.12,14.93l0,0c-4.36,3.24-8.87,5.82-12.45,7.66l0,0c-3.3,1.69-5.32,2.55-6.16,2.88l0,0
											l-0.82,0.33L124.88,195.78L124.88,195.78z M87.26,98.89c0.01,0.01,0.04,0.04,0.13,0.15l0,0
											c0.73,0.85,3.84,4.88,3.85,10.38l0,0c0,0.03,0,0.03,0,0.06l0,0v52.31c0,2.82,0.68,5.48,1.79,7.97l0,0
											c2.63,5.84,7.64,10.74,12.91,14.68l0,0c4.31,3.22,8.81,5.78,12.37,7.61l0,0c3.29,1.68,5.29,2.54,6.09,2.85l0,0l0.59,0.22
											l0.59-0.22c0.82-0.31,2.82-1.17,6.1-2.85l0,0c3.57-1.83,8.04-4.39,12.36-7.61l0,0c5.28-3.94,10.28-8.83,12.91-14.68l0,0
											c1.11-2.49,1.8-5.15,1.8-7.97l0,0v-52.31l0,0c0-0.01,0-0.01,0-0.01v0c0-3.15,0.99-5.82,2.01-7.71l0,0
											c0.51-0.93,1.02-1.67,1.39-2.16l0,0c0.18-0.25,0.34-0.44,0.44-0.56l0,0c0.09-0.11,0.14-0.15,0.14-0.15l0,0l2.56-2.72
											h-18.56l-0.28,0.11l-21.46,8.36l-21.73-8.46H84.71L87.26,98.89L87.26,98.89z M146.67,96.17v-0.32V96.17L146.67,96.17z"/>
									</g>
									<path class="st1" d="M125,112.9c-34.62,0-62.68,28.06-62.68,62.68c0,34.61,28.07,62.68,62.68,62.68
										c34.61,0,62.68-28.07,62.68-62.68C187.69,140.97,159.61,112.9,125,112.9z M125,234.34c-32.45,0-58.75-26.31-58.75-58.75
										c0-32.44,26.3-58.75,58.75-58.75c32.44,0,58.75,26.31,58.75,58.75C183.75,208.03,157.44,234.34,125,234.34z M125,79.96
										c-52.81,0-95.62,42.81-95.62,95.63c0,52.8,42.82,95.61,95.62,95.61c52.81,0,95.62-42.81,95.62-95.61
										C220.62,122.77,177.81,79.96,125,79.96z M125,267c-50.49,0-91.42-40.93-91.42-91.42c0-50.49,40.93-91.42,91.42-91.42
										c50.49,0,91.42,40.93,91.42,91.42C216.42,226.08,175.49,267,125,267z M125,86.28c-49.32,0-89.3,39.99-89.3,89.3
										s39.98,89.29,89.3,89.29c49.31,0,89.3-39.97,89.3-89.29S174.31,86.28,125,86.28z M125,240.49
										c-35.85,0-64.9-29.05-64.9-64.9s29.05-64.91,64.9-64.91c35.84,0,64.9,29.06,64.9,64.91S160.84,240.49,125,240.49z"/>
									<path class="st1" d="M147.05,158.25c0,15.94-22.05,21.54-22.05,21.54s-22.05-5.6-22.05-21.54c0-2.41,0-50.81,0-50.81h44.11
										C147.05,107.44,147.05,155.83,147.05,158.25z"/>
									<path class="st4" d="M145.23,140.29c0,0-2.32,0.89-1.24,3.31c0,0-1.24,1.97-0.7,5.33c0,0,0.65,4.15-1.06,6.37
										c0,0-1.64,0.2-3.76-4.99c0.54,0.44,1.16,0,1.16,0c-0.12-0.88,0.91-0.79,0.91-0.79c-0.29-0.9,0.59-0.94,0.59-0.94
										c-0.65-1.24,0.15-1.24,0.15-1.24l-0.35-0.79c-0.34-0.83,0.35-1.03,0.35-1.03s0.29-2.23-1.18-2.91
										c-1.5-0.7-1.63-2.13-1.63-2.13l-6.92,2.68l0.58,1.57c0,0,2.33-2.12,2.74,0.15c0,0,0.14,1.97-2.22,0.89l-0.15,0.94
										c0,0,2.07,0.89,1.19,2.22c0,0-2.71,1.18-6.18-5.68h-0.59v2.92c0,0,1.28,0.25,2.48,1.48l2.3,2.81l1.55,0.2
										c0,0-1.58,1.33-2.72,0.39l-3.07-3.36h-0.48v2.33c0,0,1.97-0.16,4.34,3.6h2.06c0,0-0.13,2.42,2.97,3.96l-3.55,2.31
										c0,0-1.1,0.94-2.07,0.09l-3.17-2.46h-0.64v1.19l5.22,3.51c0,0,1.35,0.29,2.94-1.48c0,0,1.32-1.04,3.45-1.04
										c0,0-0.35,1.33,1.37,2.42c0,0-0.29,1.14-0.43,2.37c0,0,0,1.09-2.23,1.18c0,0-1.3-0.19-1.73,1.04h3.7l4.04-4.15
										c0,0,0.31-1.08-0.64-1.91c0,0,1.49-1.48,0.8-3.95c0,0,2.11-2.86,0.59-8.06c0,0-0.9-2.81,0.9-4.83
										C144.89,143.8,146.11,142.37,145.23,140.29z M116.32,148.93c-0.88-1.33,1.18-2.22,1.18-2.22l-0.14-0.94
										c-2.37,1.07-2.23-0.89-2.23-0.89c0.4-2.26,2.73-0.15,2.73-0.15l0.59-1.57l-6.92-2.68c0,0-0.14,1.43-1.64,2.13
										c-1.47,0.68-1.16,2.91-1.16,2.91s0.68,0.2,0.34,1.03l-0.34,0.79c0,0,0.79,0,0.14,1.24c0,0,0.87,0.04,0.59,0.94
										c0,0,1.04-0.1,0.91,0.79c0,0,0.63,0.44,1.17,0c-2.13,5.19-3.76,4.99-3.76,4.99c-1.72-2.21-1.08-6.37-1.08-6.37
										c0.54-3.36-0.7-5.33-0.7-5.33c1.08-2.41-1.24-3.31-1.24-3.31c-0.88,2.08,0.35,3.5,0.35,3.5c1.79,2.02,0.89,4.83,0.89,4.83
										c-1.51,5.2,0.58,8.06,0.58,8.06c-0.68,2.47,0.81,3.95,0.81,3.95c-0.95,0.84-0.65,1.91-0.65,1.91l4.04,4.15h3.7
										c-0.42-1.23-1.73-1.04-1.73-1.04c-2.21-0.09-2.21-1.18-2.21-1.18c-0.15-1.23-0.43-2.37-0.43-2.37
										c1.72-1.09,1.37-2.42,1.37-2.42c2.13,0,3.45,1.04,3.45,1.04c1.58,1.77,2.93,1.48,2.93,1.48l5.22-3.51v-1.19h-0.65
										l-3.16,2.46c-0.98,0.84-2.07-0.09-2.07-0.09l-3.54-2.31c3.1-1.53,2.96-3.96,2.96-3.96h2.07c2.37-3.76,4.34-3.6,4.34-3.6
										v-2.33h-0.49l-3.06,3.36c-1.14,0.94-2.72-0.39-2.72-0.39l1.54-0.2l2.31-2.81c1.19-1.24,2.47-1.48,2.47-1.48v-2.92h-0.6
										C119.04,150.11,116.32,148.93,116.32,148.93z"/>
									<path class="st3" d="M125,170.78"/>
									<path class="st5" d="M125,114.04c-8.73,0-15.81,5.09-15.81,11.38c0,6.27,7.08,11.39,15.81,11.39
										c8.74,0,15.8-5.11,15.8-11.39C140.8,119.13,133.74,114.04,125,114.04z"/>
									<path class="st1" d="M99.14,95.69l4.26-2.28c1.47-0.78,2.99-1.06,4.34-1.12l0,0l0.23-1.19c0.99-4.43,4.42-6.84,5.55-7.58
										l0,0c-0.11-0.39-0.17-0.77-0.17-1.13l0,0c0.22-2.86,2.15-3.75,2.24-3.95l0,0l1.27-0.88l1.29,0.85
										c2.41,1.62,5.19,2.12,6.36,2.24l0,0c0.24,0.03,0.39,0.04,0.47,0.04l0,0c0.05,0,0.2,0,0.51-0.04l0,0
										c0.38-0.04,0.95-0.12,1.63-0.27l0,0c1.35-0.3,3.12-0.89,4.72-1.97l0,0l1.29-0.85l1.27,0.88c0.09,0.19,2.03,1.09,2.24,3.95
										l0,0c0,0.35-0.04,0.73-0.15,1.13l0,0c1.13,0.74,4.55,3.15,5.55,7.58l0,0l-2.22,0.44l2.22-0.44l0.24,1.19
										c1.34,0.06,2.86,0.34,4.34,1.12l0,0l4.26,2.28L125,106.14L99.14,95.69L99.14,95.69z M125,101.27l0.51-0.21
										c-0.2,0.02-0.31,0.03-0.33,0.03l0,0l-0.19,0.01l-0.18-0.01c-0.02,0-0.13-0.02-0.31-0.03l0,0L125,101.27L125,101.27z
										 M137.02,90.44c-0.68-1.18-1.75-2.2-2.47-2.76l0,0c-2.62,0.83-5.86,2.94-7.3,4.01l0,0c-0.54,0.4-0.83,0.64-0.83,0.64l0,0
										L125,93.46l-1.41-1.13c0,0-0.3-0.24-0.85-0.64l0,0c-0.54-0.4-1.32-0.95-2.23-1.52l0,0c-1.51-0.95-3.42-1.97-5.06-2.5l0,0
										c-0.28,0.22-0.63,0.51-0.97,0.85l0,0c-0.56,0.53-1.1,1.19-1.5,1.92l0,0c0.83,0.41,1.89,0.9,3.1,1.39l0,0
										c2.76,1.14,6.31,2.22,8.92,2.2l0,0C128.76,94.08,134.32,91.77,137.02,90.44L137.02,90.44z M125,82.95l0.05-2.26L125,82.95
										L125,82.95z"/>
									<path class="st2" d="M125,56.68l0.1,0.1c0,0,6.33,5.43,13.22,5.73c0,0-2.75-8.99-13.32-8.99
										c-10.57,0-13.33,8.99-13.33,8.99c6.9-0.3,13.23-5.73,13.23-5.73L125,56.68z M125,73.19c7.69-3.67,13.43-2.37,13.43-2.37
										c0.98-1.88,0.59-5.44,0.59-5.44c-8.6-0.59-14.02-5.52-14.02-5.52s-5.43,4.93-14.03,5.52c0,0-0.39,3.56,0.6,5.44
										C111.57,70.82,117.3,69.52,125,73.19z M137.37,72.82c0,0-8.06-0.32-12.37,3.77c-4.31-4.09-12.39-3.77-12.39-3.77
										s2.63,6.09,12.39,7.87C134.75,78.91,137.37,72.82,137.37,72.82z M125,82.95c0,0-4.25-0.09-8.1-2.65
										c0,0-1.68,1.18-1.18,2.65c0,0,5.83,1.99,9.28,4.54c3.45-2.55,9.28-4.54,9.28-4.54c0.5-1.48-1.18-2.65-1.18-2.65
										C129.25,82.86,125,82.95,125,82.95z M139.81,91.54c-0.78-3.94-4.84-6.32-4.84-6.32c-4.54,0.98-9.96,5.34-9.96,5.34
										s-5.43-4.35-9.97-5.34c0,0-4.06,2.38-4.84,6.32c0,0,8.49,4.75,14.81,4.75C131.32,96.29,139.81,91.54,139.81,91.54z
										 M138.14,95.01c-6.71,3.31-13.14,3.83-13.14,3.83s-6.43-0.53-13.14-3.83c0,0-4.23-1.3-7.39,0.39l20.53,8.3l20.53-8.3
										C142.37,93.71,138.14,95.01,138.14,95.01z"/>
									<path class="st6" d="M126.42,159.89v-22.43h-2.83v22.43c0,3.25-3.27,9.27-3.27,9.27c1.64,1.15,3.25,1.57,4.68,1.62
										c1.43-0.05,3.04-0.47,4.68-1.62C129.68,169.17,126.42,163.14,126.42,159.89z"/>
									<path class="st4" d="M147.04,97.79L125,106.37l-22.03-8.58H88.45c0,0,4.41,4.68,4.41,11.7v52.31c0,2.56,0.6,4.99,1.65,7.31
										c2.44,5.44,7.25,10.2,12.41,14.04c4.22,3.15,8.64,5.67,12.13,7.47c3.25,1.66,5.22,2.49,5.95,2.78
										c0.74-0.29,2.71-1.12,5.95-2.78c3.5-1.8,7.92-4.32,12.14-7.47c5.15-3.84,9.98-8.6,12.39-14.04
										c1.04-2.32,1.66-4.75,1.66-7.31v-52.31c0-7.02,4.41-11.7,4.41-11.7H147.04z M147.05,158.25
										c0,15.94-22.05,21.54-22.05,21.54s-22.05-5.6-22.05-21.54c0-2.41,0-50.81,0-50.81h44.11
										C147.05,107.44,147.05,155.83,147.05,158.25z"/>
									<path class="st3" d="M155.51,131.5h-2.2l-1.17,1.88l-1.17-1.88h-2.27l2.32,3.2l-2.42,3.3h2.23l1.23-1.96l1.23,1.96h2.29
										l-2.4-3.33L155.51,131.5z M128.35,182.17h-2.21l-1.14,1.88l-1.14-1.88h-2.21l2.32,3.16l-2.41,3.33h2.3l1.14-1.88l1.14,1.88
										h2.3l-2.41-3.33L128.35,182.17z M150.83,106.54l1.23-1.97l1.23,1.97h2.29l-2.4-3.32l2.33-3.17h-2.2l-1.17,1.88l-1.17-1.88
										h-2.27l2.32,3.2l-2.42,3.29H150.83z M154.02,162.96h-2.19l-1.16,1.88l-1.18-1.88h-2.26l2.3,3.18l-2.39,3.31h2.21l1.25-1.96
										l1.21,1.96h2.31l-2.41-3.33L154.02,162.96z M96.71,106.54l1.22-1.97l1.24,1.97h2.24l-2.42-3.29l2.32-3.2h-2.27l-1.17,1.88
										l-1.17-1.88h-2.21l2.32,3.17l-2.4,3.32H96.71z M102.76,162.96h-2.24l-1.19,1.88l-1.17-1.88h-2.18l2.32,3.16l-2.42,3.33
										h2.31l1.21-1.96l1.26,1.96h2.2l-2.39-3.31L102.76,162.96z M97.93,136.03l1.24,1.96h2.24l-2.42-3.3l2.32-3.2h-2.27
										l-1.17,1.88l-1.17-1.88h-2.21l2.32,3.17l-2.4,3.33h2.29L97.93,136.03z"/>
									<path class="st1" d="M194.14,82.86v-0.6l-0.02-0.05c-0.06-5.88-2.21-10.5-4.35-13.62c-1.08-1.59-2.16-2.8-3-3.65
										c-0.41-0.42-0.77-0.75-1.03-0.97c-0.13-0.11-0.23-0.2-0.31-0.26c-0.09-0.08-0.08-0.08-0.15-0.12
										c-4.03-3.33-8.84-4.37-13.19-4.36c-4.04,0-7.76,0.86-10.52,1.72c-1.39,0.42-2.52,0.85-3.33,1.18
										c-0.4,0.18-0.73,0.31-0.95,0.41c-0.2,0.1-0.27,0.12-0.38,0.18c-5.45,2.44-9.65,2.84-11.91,2.84
										c-0.22,0-0.44-0.01-0.63-0.01l-2.84-0.08l0.55,2.78c0.45,2.23,1.69,3.69,2.56,4.47c-2.29,2.8-2.59,6.22-2.61,8.43
										l0.01,0.72l0.02,3.6l3.23-1.58c0.28-0.14,0.66-0.33,1.08-0.54c-0.03,0.3-0.03,0.58-0.03,0.85
										c-0.01,1.97,0.51,3.44,1.09,4.38l1.32,2.15l1.99-1.55c0.42-0.32,1.17-0.91,1.96-1.54c1.33,4.22,4.53,6.63,7.33,7.71
										c2.47,0.99,4.74,1.21,5.78,1.26c0.27,0.49,0.4,1.05,0.4,1.75c0.02,1.31-0.54,2.99-1.12,4.22l-1.85,3.97l4.3-0.8
										c1.83-0.33,3.57-1.13,4.79-2.59c1.83-2.18,2.04-4.72,2.05-6.35c0-0.47-0.02-0.88-0.04-1.2c5.31-3.86,6.09-8.78,6.03-10.71
										v-0.07l-0.03-0.63v-0.07v-0.04v-0.46c0.03-3.17-1.36-5.67-3.05-7.27c-1.69-1.62-3.64-2.49-5.12-3.01l-3.88-1.35l0.95,4
										c0.11,0.52,0.18,0.98,0.18,1.33c0,0.67-0.14,1.22-0.38,1.72c-0.36,0.77-0.95,1.31-1.52,1.67c-0.29,0.18-0.55,0.3-0.74,0.38
										c-0.09,0.04-0.17,0.06-0.2,0.07c-0.01,0-0.02,0-0.02,0c-0.43,0.1-0.84,0.13-1.22,0.13c-1.33-0.01-2.16-0.47-2.9-1.17
										c-0.71-0.69-1.2-1.68-1.36-2.29l-0.03-0.08l-0.02-0.08c-0.28-0.73-0.37-1.36-0.37-1.95c0-1.5,0.69-2.81,1.78-3.98
										c1.07-1.13,2.51-2,3.54-2.43l0,0c1.56-0.53,2.99-0.72,4.31-0.72c2.43,0,4.47,0.69,5.95,1.42c0.73,0.36,1.33,0.73,1.71,1
										c0.39,0.27,0.58,0.45,0.59,0.44c4.51,4.1,5.77,8.57,5.79,12.75c0,3.14-0.78,6.09-1.59,8.23c-0.39,1.08-0.8,1.95-1.11,2.55
										c-0.14,0.3-0.27,0.53-0.35,0.69c-0.04,0.08-0.08,0.14-0.09,0.17c-0.02,0.02-0.02,0.02-0.02,0.02l-12.18,19.45l-0.03,0.06
										c-8.23,14.6-10.75,24.66-10.75,31.67c-0.03,6.92,2.56,10.78,4.24,12.38l2.08,2.03l1.45-2.5c1.58-2.74,1.84-5.84,1.86-8.21
										c0-1.03-0.05-1.92-0.12-2.56c0-0.03-0.01-0.06-0.01-0.09c1.84-0.58,2.88-2.23,3.24-3.39c0.34-0.97,0.44-1.86,0.5-2.48
										c1.33-0.59,2.25-1.75,2.67-2.82c0.53-1.27,0.62-2.49,0.64-3.5c-0.01-0.65-0.05-1.2-0.1-1.6c-0.02-0.21-0.05-0.38-0.07-0.5
										v-0.03l-0.04-0.22c-0.26-1.29-0.36-2.56-0.36-3.73c0-2.95,0.65-5.5,1.34-7.34c0.35-0.92,0.69-1.65,0.95-2.15
										c0.14-0.26,0.25-0.45,0.32-0.58c0.04-0.07,0.06-0.12,0.08-0.14v-0.01l0.03-0.05l10.1-16.34
										c6.7-10.51,7.14-18.25,7.13-20.07c0.01-0.09,0-0.17,0-0.22C194.14,82.91,194.14,82.88,194.14,82.86z M107.9,68.25
										l0.56-2.79l-2.85,0.09c-0.19,0.01-0.4,0.01-0.63,0.01c-2.26,0-6.47-0.4-11.95-2.86l0,0c-0.95-0.44-7.47-3.43-15.14-3.47
										c-4.36-0.01-9.19,1.04-13.22,4.39c-0.52,0.41-2.43,2.02-4.46,4.97c-2.17,3.17-4.35,7.89-4.35,13.88c0,0.05,0,0.11,0,0.2
										l-0.01,0.02v0.19v0.02c0,0.07,0,0.16,0,0.28c-0.01,1.84,0.45,9.57,7.14,20.07l10.05,16.26l1.93-1.19l-1.92,1.2
										c0.03,0.04,2.75,4.42,2.73,10.3c0,1.18-0.11,2.44-0.37,3.72l-0.04,0.22v0.07c-0.05,0.34-0.15,1.12-0.15,2.07
										c0,1,0.1,2.24,0.62,3.51c0.41,1.07,1.35,2.22,2.7,2.82c0.04,0.63,0.16,1.51,0.48,2.48c0.35,1.16,1.39,2.81,3.23,3.39
										c-0.06,0.65-0.12,1.54-0.13,2.65c0.02,2.36,0.27,5.45,1.83,8.19l1.46,2.51l2.08-2.02c1.69-1.62,4.29-5.47,4.27-12.4
										c0-7.01-2.51-17.07-10.75-31.67l-0.02-0.05L68.75,95.79v0c-0.4-0.68-3.14-5.82-3.1-11.58c0.02-4.19,1.27-8.65,5.79-12.75
										l-0.04-0.12l0.07,0.1c0.37-0.33,3.69-2.88,8.21-2.84c1.31,0,2.75,0.19,4.31,0.72c1.03,0.42,2.47,1.3,3.55,2.43
										c1.1,1.17,1.79,2.48,1.79,3.98c0,0.57-0.11,1.22-0.37,1.98l-0.03,0.05l0,0.05c-0.18,0.63-0.68,1.62-1.39,2.31
										c-0.74,0.7-1.58,1.17-2.91,1.18c-0.37,0-0.79-0.04-1.27-0.15c-0.37-0.12-1.87-0.83-2.42-2.1
										c-0.24-0.49-0.37-1.06-0.37-1.73c0-0.39,0.05-0.84,0.16-1.35l0.89-3.98l-3.84,1.35c-1.46,0.52-3.4,1.39-5.1,3.01
										c-1.69,1.6-3.08,4.1-3.06,7.25v0.6l-0.02,0.61v0.04v0.04c-0.05,1.93,0.73,6.86,6.05,10.71c-0.04,0.32-0.06,0.72-0.06,1.2
										c0.01,1.64,0.23,4.17,2.05,6.36c1.22,1.45,2.97,2.26,4.8,2.59l4.33,0.78l-1.88-3.97c-0.59-1.22-1.15-2.89-1.14-4.2
										c0-0.69,0.13-1.27,0.4-1.75c1.03-0.05,3.3-0.25,5.79-1.26c2.79-1.08,6.01-3.49,7.33-7.71c0.79,0.62,1.53,1.21,1.94,1.52
										l1.98,1.57l1.33-2.15c0.59-0.94,1.11-2.42,1.1-4.38c0-0.27-0.01-0.55-0.03-0.85c0.43,0.21,0.81,0.4,1.08,0.53l3.16,1.57
										l0.11-4.24c-0.02-2.27-0.34-5.68-2.62-8.47C106.24,71.96,107.41,70.54,107.9,68.25z"/>
									<g>
										<path class="st4" d="M149.37,79.33l-0.48,2.39c-0.22,0.95-0.3,1.77-0.3,2.48c0,1.6,0.4,2.6,0.76,3.2
											c1.13-0.87,4.82-3.79,4.82-3.79l0.34,1.97c1.57,8.78,11.43,8.8,11.86,8.8l0.57-0.02l0.35,0.46
											c0.86,1.03,1.18,2.3,1.18,3.55c0,1.88-0.7,3.78-1.34,5.17c1.47-0.28,2.66-0.87,3.48-1.83c1.26-1.49,1.51-3.52,1.51-4.9
											c0-0.88-0.1-1.48-0.1-1.5l-0.14-0.75l0.63-0.43c5.09-3.46,5.6-7.69,5.6-9.22l-0.02-0.59V84.2v-0.12V83.6
											c0-5.03-4.1-7.23-6.65-8.13c0.14,0.65,0.23,1.26,0.23,1.85c0,0.98-0.21,1.89-0.59,2.7c-1.2,2.53-3.83,3.3-3.94,3.33
											c-5.12,1.15-7.62-2.68-8.25-4.91c-0.35-0.96-0.51-1.87-0.51-2.72c0-4.47,4.18-7.46,6.78-8.52l0.06-0.03h0.03
											c8.41-2.86,14.53,2.36,14.79,2.59c5.03,4.53,6.54,9.77,6.54,14.43c0,7.02-3.45,12.76-3.49,12.85l-12.18,19.43
											c-8.1,14.38-10.45,24.11-10.45,30.56c0,6.38,2.29,9.52,3.57,10.78c1.25-2.12,1.55-4.91,1.55-7.07
											c0-1.88-0.22-3.28-0.22-3.31l-0.21-1.28l1.28-0.1c2.66-0.19,2.76-3.89,2.76-4.48l-0.03-1.01l0.9-0.25
											c2.02-0.53,2.42-2.76,2.42-4.42c0-1.05-0.16-1.89-0.16-1.9c-0.29-1.46-0.42-2.86-0.42-4.18c0-6.57,2.95-11.28,3.1-11.5
											l10.06-16.29c7.22-11.33,6.8-19.06,6.8-19.15l-0.03-0.03v-0.06c0.15-11.08-7.88-17.36-7.97-17.42
											c-9.98-8.31-25.85-0.69-26.02-0.61c-6.37,2.86-11.24,3.12-13.58,3.05c0.52,2.57,2.44,3.68,2.53,3.74l1.4,0.79l-1.18,1.11
											c-2.32,2.18-2.76,5.48-2.76,7.7v0.71C145.61,81.22,149.37,79.33,149.37,79.33z"/>
										<path class="st4" d="M74.97,118.32c0.14,0.23,3.08,4.94,3.08,11.5c0,1.32-0.12,2.72-0.41,4.18c0,0.01-0.15,0.85-0.15,1.9
											c0,1.66,0.39,3.88,2.42,4.42l0.9,0.25l-0.02,1.01c0,0.59,0.11,4.29,2.75,4.48l1.29,0.1l-0.2,1.28
											c-0.01,0.03-0.23,1.43-0.23,3.31c0,2.15,0.29,4.95,1.52,7.07c1.29-1.25,3.59-4.4,3.59-10.78
											c0-6.45-2.34-16.17-10.45-30.56L66.89,97.05c-0.06-0.09-3.5-5.83-3.5-12.85c0-4.66,1.51-9.9,6.54-14.43
											c0.26-0.23,6.38-5.45,14.78-2.59h0.04l0.03,0.03c2.64,1.06,6.82,4.05,6.82,8.52c0,0.86-0.17,1.76-0.5,2.72
											c-0.64,2.23-3.13,6.06-8.26,4.91c-0.12-0.03-2.74-0.8-3.94-3.33c-0.39-0.81-0.59-1.71-0.59-2.7c0-0.59,0.07-1.2,0.21-1.85
											c-2.54,0.9-6.64,3.1-6.64,8.13l0.01,0.48l0.02,0.12l-0.03,0.11l-0.02,0.59c0,1.53,0.5,5.76,5.59,9.22l0.63,0.43
											l-0.12,0.75c0,0.01-0.12,0.62-0.12,1.5c0,1.38,0.25,3.41,1.52,4.9c0.81,0.97,2,1.55,3.5,1.83
											c-0.66-1.39-1.36-3.29-1.36-5.17c0-1.26,0.33-2.52,1.18-3.55l0.36-0.46l0.58,0.02c0.4,0,10.27-0.02,11.84-8.8l0.34-1.97
											c0,0,3.7,2.92,4.81,3.79c0.38-0.6,0.77-1.59,0.77-3.2c0-0.71-0.08-1.53-0.28-2.48l-0.51-2.39c0,0,3.79,1.89,5.1,2.53
											l0.02-0.71c0-2.21-0.44-5.52-2.77-7.7l-1.18-1.11l1.4-0.79c0.1-0.06,2.01-1.17,2.53-3.74c-2.34,0.08-7.21-0.19-13.58-3.05
											c-0.16-0.09-16.04-7.7-26.02,0.61c-0.08,0.06-8.13,6.34-7.97,17.42v0.06l-0.01,0.03c0,0.09-0.43,7.82,6.78,19.15
											L74.97,118.32z"/>
									</g>
								</g>
							</g>
						</g>
					</g>
					<path class="st3" d="M131.16,25.49c-0.45-0.39-1.05-0.72-1.62-1.02c-0.94-0.5-1.77-0.81-2.84-1.04v6.18
						c0.98-0.33,2.86-1.09,4.47-2.36c0.27-0.21,0.59-0.54,0.6-0.85C131.78,26.14,131.57,25.83,131.16,25.49z"/>
					<path class="st3" d="M132.14,33.16v-4.11c-0.9,0.68-2.59,1.62-5.72,2.68c-0.14,0.04-10.06,2.75-13.06,9.86l15.32-4.34
						C128.86,37.2,132.14,36.44,132.14,33.16z"/>
				</g>
			</g>
		</g>
	</g>
	<g>
		<g>
			<path class="st0" d="M58.52,146.01c0.98-2.12,0.11-4.53-1.97-5.49c-2.1-0.97-4.5-0.08-5.48,2.04c-0.5,1.07-0.53,2.44-0.1,3.66
				l-2,0.61c-0.64-1.7-0.62-3.7,0.13-5.32c1.53-3.3,5.2-4.7,8.44-3.2c3.21,1.49,4.46,5.21,2.91,8.56c-0.74,1.6-2.19,2.92-3.8,3.5
				l-0.99-1.98C56.91,147.99,58,147.12,58.52,146.01z"/>
			<path class="st0" d="M57.28,155.13l-9.83-2.85l-1.49,5.13l-2.05-0.6l2.14-7.4l11.89,3.44L57.28,155.13z"/>
			<path class="st0" d="M44.49,165.75c-0.23,1.86,0.79,3.18,2.75,3.42l7.16,0.88l-0.29,2.35l-7.16-0.88
				c-3.23-0.4-4.98-2.7-4.57-6.03c0.41-3.35,2.67-5.21,5.9-4.81l7.16,0.88l-0.29,2.35l-7.16-0.88
				C46.05,162.79,44.72,163.89,44.49,165.75z"/>
			<path class="st0" d="M51.53,184.76c-1.36,0.07-2.44-0.68-2.85-2.01c-0.21,1.66-1.34,2.71-2.98,2.8c-2.12,0.11-3.5-1.56-3.65-4.39
				l-0.3-5.65l12.36-0.67l0.3,5.49C54.53,182.97,53.43,184.66,51.53,184.76z M45.86,183.09c1.01-0.05,1.58-0.99,1.48-2.49l-0.16-3
				l-3.27,0.18l0.16,3C44.13,182.28,44.8,183.14,45.86,183.09z M50.97,182.37c0.94-0.05,1.44-0.82,1.36-2.04l-0.16-3l-3,0.16l0.16,3
				C49.4,181.71,50,182.42,50.97,182.37z"/>
			<path class="st0" d="M53.65,205.26c-3.43,1.1-6.72-0.7-7.89-4.33l-1.55-4.81l11.78-3.79l1.57,4.9
				C58.71,200.79,57.1,204.15,53.65,205.26z M52.89,202.96c2.31-0.74,3.39-2.93,2.68-5.13l-0.84-2.61l-7.81,2.51l0.87,2.69
				C48.49,202.6,50.6,203.7,52.89,202.96z"/>
			<path class="st0" d="M64.61,212.92l-1.83,0.97l-3.13-5.92l-2.7,1.43l2.81,5.31l-1.83,0.97l-2.81-5.31l-2.75,1.45l3.23,6.11
				l-1.83,0.97l-4.34-8.21l10.94-5.78L64.61,212.92z"/>
			<path class="st0" d="M68.52,225.4c-2.25,1.71-4.64,1.28-6.52-1.2l-1.63-2.15l-2.9,2.2l-1.43-1.89l9.86-7.48l3.07,4.04
				C70.83,221.4,70.69,223.75,68.52,225.4z M67.1,223.65c1.21-0.92,1.19-2.17,0.13-3.58l-1.56-2.06l-3.65,2.77l1.56,2.06
				C64.65,224.25,65.86,224.59,67.1,223.65z"/>
			<path class="st0" d="M77.8,236.85c-2.41,2.62-6.37,2.7-9.11,0.17c-2.75-2.52-3-6.48-0.6-9.1c2.42-2.63,6.34-2.67,9.09-0.14
				C79.93,230.3,80.2,234.23,77.8,236.85z M69.87,229.56c-1.58,1.72-1.4,4.38,0.27,5.92c1.67,1.53,4.29,1.45,5.87-0.27
				c1.58-1.72,1.42-4.31-0.25-5.85C74.08,227.81,71.45,227.84,69.87,229.56z"/>
			<path class="st0" d="M83.46,247.81l0.13-4.24c-0.13-0.06-0.25-0.13-0.38-0.22l-2.37-1.48l-1.93,3.09l-2.01-1.26l6.56-10.5
				l4.38,2.74c2.71,1.7,3.44,3.97,2,6.27c-1.03,1.65-2.51,2.37-4.21,2.1l0.14,4.92L83.46,247.81z M81.93,240.1l2.37,1.48
				c1.5,0.94,2.74,0.82,3.57-0.5c0.81-1.29,0.36-2.44-1.14-3.38l-2.37-1.48L81.93,240.1z"/>
			<path class="st0" d="M102.25,242.94l-0.82,1.94l-3.55-1.49l-3.98,9.47l-2.2-0.93l3.98-9.47l-3.55-1.49l0.82-1.94L102.25,242.94z"
				/>
			<path class="st0" d="M106.13,243.95l-3.5,11.87l-2.27-0.67l3.5-11.87L106.13,243.95z"/>
			<path class="st0" d="M109.98,244.98l2.03,10.2l5.19-9.02l2.41,0.39l-6.87,11.42l-2.43-0.39l-2.85-13L109.98,244.98z"/>
			<path class="st0" d="M133.13,252.53c0.07,3.55-2.74,6.35-6.47,6.42c-3.73,0.07-6.65-2.61-6.72-6.16
				c-0.07-3.57,2.74-6.31,6.47-6.39C130.15,246.33,133.06,248.98,133.13,252.53z M122.37,252.74c0.05,2.33,2.01,4.13,4.29,4.09
				c2.26-0.04,4.1-1.92,4.05-4.25c-0.05-2.33-1.95-4.1-4.22-4.06C124.2,248.57,122.32,250.41,122.37,252.74z"/>
			<path class="st0" d="M149.82,248.7l1.99-0.58l1.3,4.46c-0.95,1.27-2.6,2.44-4.25,2.92c-3.55,1.04-7.05-0.8-8.04-4.21
				c-1-3.41,1.03-6.82,4.66-7.88c1.71-0.5,3.66-0.35,5.15,0.34l-0.8,2.04c-1.14-0.57-2.55-0.71-3.75-0.36
				c-2.29,0.67-3.58,2.94-2.93,5.18c0.66,2.26,2.99,3.47,5.28,2.81c0.81-0.24,1.66-0.8,2.34-1.5L149.82,248.7z"/>
			<path class="st0" d="M161.63,248.14c1.67-0.85,2.2-2.42,1.31-4.19l-3.26-6.44l2.11-1.07l3.26,6.44c1.47,2.9,0.53,5.63-2.46,7.15
				c-3.01,1.52-5.81,0.68-7.28-2.22l-3.26-6.44l2.11-1.07l3.26,6.44C158.3,248.49,159.95,248.98,161.63,248.14z"/>
			<path class="st0" d="M175.86,238.24l-4.83,3.64l0.7,2.75l-1.96,1.48l-3.12-13.15l1.96-1.48l11.73,6.65l-2.03,1.53L175.86,238.24z
				 M173.96,237.13l-4.85-2.85l1.38,5.47L173.96,237.13z"/>
			<path class="st0" d="M186.05,223.03c2.66,2.44,2.73,6.19,0.15,9l-3.42,3.73l-9.13-8.36l3.47-3.79
				C179.66,220.84,183.37,220.58,186.05,223.03z M184.42,224.82c-1.79-1.64-4.22-1.49-5.78,0.22l-1.85,2.02l6.05,5.54l1.91-2.09
				C186.29,228.83,186.2,226.45,184.42,224.82z"/>
			<path class="st0" d="M194.8,216.05l-3.22,5.12l1.63,2.32l-1.31,2.08l-7.58-11.19l1.31-2.08l13.32,2.07l-1.36,2.15L194.8,216.05z
				 M192.63,215.68l-5.55-0.95l3.23,4.63L192.63,215.68z"/>
			<path class="st0" d="M189.76,204.36l9.41,4.03l2.1-4.91l1.97,0.84l-3.03,7.09l-11.38-4.87L189.76,204.36z"/>
			<path class="st0" d="M203.87,192.42l-1.47,5.87l2.27,1.7l-0.6,2.38l-10.69-8.27l0.6-2.38l13.3-2.19l-0.62,2.47L203.87,192.42z
				 M201.7,192.75l-5.57,0.83l4.51,3.39L201.7,192.75z"/>
			<path class="st0" d="M207.86,184.12c-0.14,1.55-0.93,2.77-2.2,3.63l-1.66-1.27c0.97-0.75,1.54-1.69,1.61-2.5
				c0.09-1.02-0.48-1.7-1.65-1.8l-6.3-0.58l-0.39,4.24l-2.1-0.19l0.6-6.62l8.45,0.77C206.77,180.05,208.08,181.69,207.86,184.12z"/>
			<path class="st0" d="M205.26,168.23l0.33,6.04l2.67,0.95l0.14,2.45l-12.66-4.74l-0.14-2.45l12.06-6.03l0.14,2.54L205.26,168.23z
				 M203.28,169.18l-5.07,2.44l5.31,1.9L203.28,169.18z"/>
			<path class="st0" d="M205.25,153.61l-3.07,2.93c0.05,0.13,0.08,0.27,0.12,0.43l0.65,2.72l3.54-0.84l0.55,2.3L195,164l-1.19-5.02
				c-0.74-3.11,0.33-5.24,2.98-5.87c1.89-0.45,3.45,0.07,4.47,1.46l3.36-3.6L205.25,153.61z M200.92,160.16l-0.65-2.72
				c-0.41-1.72-1.38-2.51-2.89-2.15c-1.48,0.35-1.97,1.49-1.56,3.21l0.65,2.72L200.92,160.16z"/>
			<path class="st0" d="M197.61,140.67l2.43,5.54l2.84-0.05l0.99,2.25l-13.51,0l-0.99-2.25l9.18-9.88l1.02,2.33L197.61,140.67z
				 M196.09,142.27l-3.89,4.06l5.64-0.08L196.09,142.27z"/>
		</g>
	</g>
</g>
</svg>
