<?xml version="1.0" encoding="utf-8"?>
<!-- Generator: Adobe Illustrator 28.2.0, SVG Export Plug-In . SVG Version: 6.00 Build 0)  -->
<svg version="1.1" id="Capa_1" xmlns="http://www.w3.org/2000/svg" xmlns:xlink="http://www.w3.org/1999/xlink" x="0px" y="0px"
	 viewBox="0 0 168.4 213.1" style="enable-background:new 0 0 168.4 213.1;" xml:space="preserve">
<style type="text/css">
	.st0{fill:#E4032C;}
	.st1{fill:#FFFFFF;}
	.st2{fill:#FDD700;}
</style>
<g>
	<g>
		<path class="st0" d="M165.5,57.3l-2.1-10.9l-10.6,3.3c-6.5,2-12.9,3-19,3c-14.8,0-28.8-6-42.8-18.3l-6.8-6.2l-6.8,6.6
			C65.8,46.5,51.3,52.4,34.3,52.4c-6.1,0-12.6-0.8-19.4-2.3L5,47.9l-2,9.9c-5.2,25.6-3.7,50.4,4.6,73.9
			c10.9,30.9,30.1,50.9,44.3,62.3c15.5,12.4,32.4,19.2,32.4,19.2s39-18.1,59.9-48.3C165.8,133.5,173,97.4,165.5,57.3z M139.7,161.8
			c-20.1,29-55.5,45.5-55.5,45.5s-14.2-5.7-29-17.5c-13.6-10.9-32.1-30.2-42.5-59.9c-7.9-22.5-9.4-46.4-4.4-71l0.9-4.6l4.6,1
			c7.1,1.6,14,2.4,20.5,2.4c18.5,0,34.3-6.4,46.9-19.1l3-3.1l3.3,2.8c15,13.2,30.1,19.6,46.3,19.6l0,0l0,0c6.6,0,13.5-1.1,20.6-3.3
			l4.9-1.5l0.9,5.1C167.5,96.9,160.6,131.7,139.7,161.8z"/>
		<path class="st1" d="M159.3,53.2l-4.9,1.5c-7.1,2.2-14,3.3-20.6,3.3l0,0l0,0c-16.2,0-31.3-6.4-46.3-19.6l-3.3-2.8l-3,3.1
			C68.6,51.3,52.8,57.7,34.3,57.7c-6.5,0-13.4-0.8-20.5-2.4l-4.6-1l-0.9,4.6c-5,24.6-3.6,48.5,4.4,71c10.5,29.7,28.9,49,42.5,59.9
			c14.8,11.8,29,17.5,29,17.5s35.4-16.5,55.5-45.5c20.9-30.1,27.8-64.9,20.5-103.5L159.3,53.2z M139.6,96.3h18.6
			c-1.4,20.3-7.4,39.5-18.6,57.3V96.3z M84.2,41.8c22.2,19.5,45.7,25.2,71.6,17.3c2.1,11.2,3,22.2,2.6,32.9H10
			c-0.4-11,0.6-21.7,2.7-32.2C41.6,66.3,65.8,60.3,84.2,41.8z M93.2,96.3v101.1c-5.5,3.2-9,4.9-9,4.9s-3.5-1.4-9-4.5V96.3H93.2z
			 M10.3,96.3h18.5v56.9c-4.5-7.3-8.6-15.6-11.8-24.9C13.2,117.6,11,106.9,10.3,96.3z M42.9,172V96.3H61v92.3
			C55.3,184.3,49,178.8,42.9,172z M107.4,188V96.3h18.1V172C119.5,178.3,113.2,183.7,107.4,188z"/>
		<path class="st0" d="M28.8,96.3H10.3c0.8,10.5,2.9,21.3,6.7,32c3.3,9.3,7.3,17.6,11.8,24.9V96.3z"/>
		<path class="st0" d="M125.5,96.3h-18.1V188c5.8-4.4,12.1-9.7,18.1-16V96.3z"/>
		<path class="st0" d="M75.1,197.9c5.5,3.1,9,4.5,9,4.5s3.6-1.7,9-4.9V96.3H75.1V197.9z"/>
		<path class="st0" d="M61,96.3H42.9V172c6.1,6.8,12.4,12.2,18.1,16.6V96.3z"/>
		<path class="st0" d="M12.8,59.8C10.6,70.3,9.6,81,10,92h148.3c0.4-10.7-0.5-21.7-2.6-32.9c-25.9,7.9-49.4,2.2-71.6-17.3
			C65.8,60.3,41.6,66.3,12.8,59.8z"/>
		<path class="st0" d="M139.6,96.3v57.3c11.1-17.8,17.2-37,18.6-57.3H139.6z"/>
		<polygon class="st2" points="76.8,22.5 84.2,18.7 91.6,22.7 89.9,14.4 96.4,8.6 87.7,7.7 84.2,0 80.8,7.7 72.1,8.8 78.5,14.5 		
			"/>
		<polygon class="st2" points="126.9,33.9 134.3,30.1 141.8,34 140.1,25.7 146.5,20 137.8,19.1 134.3,11.3 130.9,19.1 122.2,20.1 
			128.6,25.9 		"/>
		<polygon class="st2" points="26.7,33.9 34.1,30.1 41.6,34 39.9,25.7 46.3,20 37.6,19.1 34.1,11.3 30.7,19.1 22,20.1 28.4,25.9 		
			"/>
	</g>
	<g>
		<path class="st1" d="M144,69.8l8,18.2h-3.6l-2.2-4.1h-8.1l-0.7,4.1h-5.7l5.1-19.5c0.5-1.4,1.9-2.1,3.2-2.1
			C141.5,66.4,142.8,67.3,144,69.8z M143.8,79.6l-3.3-7.6c-0.2-0.5-0.6-0.4-0.7,0l-1.1,7.6H143.8z"/>
		<polygon class="st1" points="130.3,65.7 122.8,77.2 129.9,88 124.6,88 118.6,79 113.8,88 108.2,88 114.7,77.2 103.8,60.3 
			110.1,62.6 118.6,76 125,65.7 		"/>
		<path class="st1" d="M106,88h-5l-2.9-9.8l-7.7-0.4V88h-5.1V53c0-1.8,1.1-3.2,2.9-3.2c3,0,5.4,2,6.2,4.4
			C94.5,54.2,102.8,77.4,106,88z M96.6,72.8l-4.7-15.5c-0.3-1.2-1.6-1.4-1.6-0.6l0.3,15.7L96.6,72.8z"/>
		<path class="st1" d="M82.3,81.8V88H67c-2.7,0-4-2.4-4-3.7c0-6.7,0-12.7,0-19.6c0-3,2.6-4.4,3.6-4.9l15.7-10v7.3l-14,7
			c-1.5,0.9-1.9,1.7-1.9,4v12.1c0,2,1,2.5,2,2.5L82.3,81.8z"/>
		<path class="st1" d="M59.4,82.9v5H42.9c-1,0-2.9-1.9-2.9-4.4V70.7c0-2.9,1.6-4.8,3.8-5.2l15.5-2.9v5.3L44.8,70
			c-0.7,0.1-1.1,0.4-1.1,1.6v2c0,0.9,0.6,1.3,1.5,1.2l14.2-1.7v5l-14.1,1.3c-1.3,0.1-1.4,0.5-1.4,1.3v1.7c0,0.6,0.2,1.2,1.3,1.1
			L59.4,82.9z"/>
		<path class="st1" d="M32.2,67.1v16.2l-9.1-13.8c0,0,0,0,0,0c-0.1-0.2-0.3-0.4-0.5-0.6C22,68.3,21.3,68,20.4,68
			c-1.7,0-3.1,1.4-3.1,3.1V88h3.8V73.6c0,0,8.4,12.8,8.5,13c0.6,0.8,1.7,1.4,2.8,1.4c1.3,0,2.5-0.7,3.1-1.9c0.2-0.4,0.4-0.9,0.4-1.4
			V66.4L32.2,67.1z"/>
	</g>
</g>
</svg>
