<svg id="Capa_1" data-name="Capa 1" xmlns="http://www.w3.org/2000/svg" viewBox="0 0 564.85 655.51"><defs><style>.cls-1{fill:#fff;}.cls-2,.cls-3{fill:#35426a;}.cls-3{fill-rule:evenodd;}</style></defs><title>pueblafc</title><path class="cls-1" d="M224.45,105.85v0c-17,0-32.87,4.63-48.61,14.15-23.53,14.23-32.8,35.41-36.44,50.67-5,21-2.38,45.07,6.47,61.07a57.18,57.18,0,0,0-1.48,26.79,32.1,32.1,0,0,0-6.94-.74c-14.87,0-32.53,9.84-52.48,29.26-17.16,16.69-25.11,30.28-24.32,41.54.47,6.64,3.87,12.32,10.13,16.89,8.38,6.12,11.81,15.11,13.08,23H21.68l0,5.69.43,79.21V481l.68,1.26L37.06,508.7l1.61,3h1.25C36,532.19,29.46,576.85,48.53,613.15,84.41,681.44,137,683,183.33,684.42c21.75.66,42.29,1.28,59.87,8.44C273,705,290.94,722.19,303.29,750.34l4.84,11,5.4-10.76c28.64-57.08,50.36-58.32,97.93-61,11.5-.65,24.52-1.39,39.32-3,40.49-3.42,70.67-18.78,89.57-45.63,31.38-44.59,22.2-107,17.89-128h8.19l1.7-2.33,17.33-23.81,1.08-1.49V437.63h-9.38c.24-20.11-6-50.3-42.22-54a109,109,0,0,0-11.09-.56c-4.13,0-7.73.22-10.5.48-.85-16.69,9.67-28.34,29.39-39.61l3.23-1.84-.41-3.69c-5.7-51.25-41.38-89.86-89-96.46l-1.47-.2-8.18,3.62c-2.31.91-5.78,2.55-8.33,2.55-3.93,0-5.81-3.34-13.64-10.15a130.76,130.76,0,0,0-31.27-20C461.19,211,491.08,174,504.29,142.56c1.61-3.83,1.4-7.73-.57-10.7a9.14,9.14,0,0,0-7.76-4.09,11.82,11.82,0,0,0-5.91,1.68c-36.87,21.14-65.74,34.25-95.69,34.25-21.07,0-42.54-6.22-69.61-20.16-37.27-21.3-68.47-37.68-100.31-37.68" transform="translate(-21.68 -105.85)"/><path class="cls-2" d="M224.45,111.51c31.26,0,62.49,16.93,97.72,37.05,27.61,14.22,50.25,20.79,72.2,20.79,30.41,0,59.47-12.62,98.5-35a6.29,6.29,0,0,1,3.1-.93c3,0,4.75,3.06,3.11,6.95-14.35,34.18-47.83,72.76-128.05,72.76q-5.64,0-11.58-.26s33.38,4.44,61.75,29.12c9.72,8.45,12.26,11.54,17.35,11.54,5.44,0,10-3.17,17.2-6,46.19,6.4,78.94,44.52,84.16,91.48-19.85,11.35-35.77,25.61-31.57,50.83a98,98,0,0,1,15.49-1.13,103.07,103.07,0,0,1,10.51.53c32.42,3.34,37.68,29.85,37,54.05h9.51v40.17l-17.33,23.81h-12.4s43,161.52-101,173.68c-76.38,8.4-104.43-7.13-141.69,67.12-12.61-28.74-31.12-47.39-63.14-60.44C188,664.25,104.27,707.08,53.54,610.52c-20.65-39.31-9.68-89.9-6.72-104.5H42L27.79,479.57V453.36l-.43-79.21H90.09c-.52-11.45-4.29-24.69-16-33.24-11.36-8.3-13.5-22.27,14.8-49.8,21.5-20.92,37.2-27.65,48.54-27.65A24.71,24.71,0,0,1,154,269.58c-.93-1-9.2-18.39-2-38.49-15.1-24.18-16.38-80.17,26.73-106.25,15.54-9.4,30.61-13.33,45.68-13.33m0-5.66v0c-17,0-32.87,4.63-48.61,14.15-23.53,14.23-32.8,35.41-36.44,50.67-5,21-2.38,45.07,6.47,61.07a57.18,57.18,0,0,0-1.48,26.79,32.1,32.1,0,0,0-6.94-.74c-14.87,0-32.53,9.84-52.48,29.26-17.16,16.69-25.11,30.28-24.32,41.54.47,6.64,3.87,12.32,10.13,16.89,8.38,6.12,11.81,15.11,13.08,23H21.68l0,5.69.43,79.21V481l.68,1.26L37.06,508.7l1.61,3h1.25C36,532.19,29.46,576.85,48.53,613.15,84.41,681.44,137,683,183.33,684.42c21.75.66,42.29,1.28,59.87,8.44C273,705,290.94,722.19,303.29,750.34l4.84,11,5.4-10.76c28.64-57.08,50.36-58.32,97.93-61,11.5-.65,24.52-1.39,39.32-3,40.49-3.42,70.67-18.78,89.57-45.63,31.38-44.59,22.2-107,17.89-128h8.19l1.7-2.33,17.33-23.81,1.08-1.49V437.63h-9.38c.24-20.11-6-50.3-42.22-54a109,109,0,0,0-11.09-.56c-4.13,0-7.73.22-10.5.48-.85-16.69,9.67-28.34,29.39-39.61l3.23-1.84-.41-3.69c-5.7-51.25-41.38-89.86-89-96.46l-1.47-.2-8.18,3.62c-2.31.91-5.78,2.55-8.33,2.55-3.93,0-5.81-3.34-13.64-10.15a130.76,130.76,0,0,0-31.27-20C461.19,211,491.08,174,504.29,142.56c1.61-3.83,1.4-7.73-.57-10.7a9.14,9.14,0,0,0-7.76-4.09,11.82,11.82,0,0,0-5.91,1.68c-36.87,21.14-65.74,34.25-95.69,34.25-21.07,0-42.54-6.22-69.61-20.16C287.48,122.23,256.28,105.85,224.45,105.85Z" transform="translate(-21.68 -105.85)"/><path class="cls-3" d="M150.36,279.63C187.81,315.92,230.56,357.58,268,394c-15.15-.7-26.22,4.79-32.63,16.56l-11.27-16.8H185.43c-3.65,0-8.61-1.41-11.25-3.94-11.39-10.89-44-42.09-67.42-64.74-13.12-12.23-27.27-3-20,8,10.52,16.59,16,29.59,16.48,46.29l-6.88,0C97,360,88,348.65,79.8,335.67,72.1,322.38,82,309.41,93.75,297.4c26.75-27.13,42.06-29.46,56.62-17.77" transform="translate(-21.68 -105.85)"/><path class="cls-3" d="M113.06,380c10.93.77,17.2,5.9,22.57,14.67,2.55-9.9,4-14.45,2.35-30.23-11.78-11.36-23.55-22.62-35.34-34-6.93-1.23-4.34,1.88,0,9.83C117,367,112.6,380,113.06,380" transform="translate(-21.68 -105.85)"/><path class="cls-3" d="M459.38,638.93c.31-5.25-.53-23.35-3-28.6-17,21.62-36.14,32.75-84,32.75-34.76,0-52.55,23.43-63.36,39.59-12.16-20.73-30.49-39.46-57-43.43-48.1-7.21-90.79,8.22-137.92-11.89C64.66,602,53.54,565,66.34,504.91h7.23c-16.92,51.13.08,95.73,42.81,114.89,45,20.63,70.48,9.61,116.35,9.61,34.76,0,58.65,15.37,75.89,42.83,11.26-17.12,23.9-33.74,58.78-35.65,45.1-2.47,63.33-7.11,85-31.2l-1.25-5.92C426,627.67,400.51,627,364.55,630c-20.64,1.7-42.55,11.1-55.2,28.37-5.92-7-21.1-46.79-105.1-37.28-58,6.57-81.86-.29-107.52-26.26-12.52-12.66-21-32.46-20.85-54.72a91.15,91.15,0,0,1,10.77-41.72c.21-.53.72-1.07.93-1.59H61.49c-.1.41-10.45,23.63-7.38,57.23,4.54,49.78,43.53,94.06,92.39,104.71,30.5,6.65,61.08-3,91.48,5a120.94,120.94,0,0,1,64.32,42.51q3.56,4.55,6.69,9.42c21.14-38.67,44.92-50.37,102.06-46.56,44.41,3,85.36-11.35,102.79-37.42-26.32,7.26-49.62,8.17-54.46,7.26" transform="translate(-21.68 -105.85)"/><path class="cls-3" d="M461.36,256.51c-86.45,24.34-121.45,17.7-160.9-8.88-40.13,34.55-102.28,38.51-123.76,16.62-7.27-3.4-15.55-8.43-20.13-12.45-2.72,51.28,56.61,89.39,151.79,39,31.85,19,95.24,21.91,143-6.59C468.45,299.83,482.5,315.37,490,331c-13,19.45-15.3,42.14-10.31,74.18,2.66-2.67,8.31-12.35,18.85-18.07-.05-23.37,14-45.41,31.88-56-7.38-34.92-31.1-61.91-69.06-74.61m33.19,126.44-7.8,5.78c-6.32-27.41-1.73-48.76,22.4-67.41-11-22.12-27-37.54-45.7-49.24-41.63,27.44-107.36,38.87-155.67,13-50.68,28-119.32,34.12-135.87-2.66,33.11,26.47,93.06,22.86,135.2-4.9,42.26,26.59,107.73,16.7,154.36-11.81,26.85,11.81,48.82,29.35,60.15,59.56C502.4,340.45,494.55,358.5,494.55,382.95Z" transform="translate(-21.68 -105.85)"/><path class="cls-2" d="M231.64,468.16V417.82l-11.32-17.69H189.07v46.31c0,3.61-1.86,5.15-4.41,5.44l.05-31.72-13.46-19.83H137v28l.07,0,5.41,4.63-.08,20.11a32.07,32.07,0,0,0,7.38,21.14c.78.84,9.54,13.23,18.91,17.27,11.39,4.91,31.56,2.85,40-3.44l2.74,4.38h23.91V473.71Zm-7.37,5.07H198.09v-.44l.05-4.18c-16.14,14.09-50.59,8.9-50.59-15.49l.12-33.21-5.53-1.2V405.43h28.51v38.89c0,17.57,23.53,15.68,23.53,2.1V405.24h23.14v53.5l7.32,1.63Z" transform="translate(-21.68 -105.85)"/><path class="cls-2" d="M384.08,430.43H367.63v25h17.71c2.65,0,8.76-2.78,8.76-13.16,0-11.31-7.27-11.89-10-11.89" transform="translate(-21.68 -105.85)"/><path class="cls-2" d="M414.69,420.45c-4.63-8.9-15.48-12.28-25.82-12.61-7.88-.25-13.42,1.25-16.46,3V384.16H333.29l-4.16,8.51v28.24l8.28,3v31.53l-4.28,2.4L329,468.35l.08,25.93h51.74c14.79,0,21.89-2.25,28.39-14.6a160.43,160.43,0,0,0,8.46-20.89,18.89,18.89,0,0,0,.49-2.47l0-.15c.19-1,.36-2.1.51-3.2.06-.42.13-.82.18-1.24a75.5,75.5,0,0,0,.55-9.13c0-9.33-1.92-16.65-4.79-22.17m-31,52.84H336.88V458l6.86-1.51v-53l-6.86-1.2V389.43h30.4v29.79s4.23-6.12,18-6.12c16.59,0,29,3.09,29,29.53S403.21,473.28,383.67,473.28Z" transform="translate(-21.68 -105.85)"/><path class="cls-2" d="M101.5,403.29H74.17v21.16H101.5c8.79,0,8.59-21.16,0-21.16" transform="translate(-21.68 -105.85)"/><path class="cls-2" d="M133.19,417.08c0-.4.08-.78.08-1.18,0-20.84-12.44-31.74-24.72-31.74H39.76v25l6.75,14v30.22a8.1,8.1,0,0,1-.09.89l-2.6.55-4.06.81v21.24h0v0L51,493.49H90.15V482.7l0-11.86-2.24-4.67-.1-.3h25.85c20.3,0,21.83-35.35,19.55-48.79M105.4,444.77H74.27v13.9l5.86.94v13.67H44.88V460.13l6.9-1.46-.09-55.38-6.82-1.2V389.26h63.67C135.14,389.26,135.22,444.77,105.4,444.77Z" transform="translate(-21.68 -105.85)"/><path class="cls-2" d="M468.57,455.08l-1.89-.4,0-21.06V384.14h-4.76l-7.36,0H436.26l-6.76,0-.84,0-6.21,14.7v22l5.4,3.09.32,39.11-5.72,10.83v20.47h43l7.16-13V455.94Zm-1.07,18.2H432.25V460.23l6.82-1.51V403.6l-6.82-1.2V389.47h29.28v44.14l0,25.2,5.93,1.26Z" transform="translate(-21.68 -105.85)"/><path class="cls-2" d="M292.74,419.62H274.07q-5.86,0-5.86,6.17V433h30.4v-7.23q0-6.17-5.86-6.17" transform="translate(-21.68 -105.85)"/><path class="cls-2" d="M292.28,400.11H272c-18.53,0-32.23,12-33.63,28.86q-.16,1.65-.16,3.36v20.62c0,.79.06,1.56.12,2.33l0,0c0,29.07,18.95,38.48,37.85,38.94,26.7.66,39.46-6.2,39.46-6.2l2.47-1.36.2-16-8.39-10.55a6.15,6.15,0,0,0,5.59-1.54l9.88-13.23v-6.68l.18-10.76c0-16.13-14-27.83-33.25-27.83m28.13,40.33a4.8,4.8,0,0,1-4.82,4.8l-48.85-.2v2.16c0,9.67,1.48,13.16,8.2,13.52,13.24.71,29.42-2.32,29.42-2.32v15.05c-5.57,1.18-21.75,2.66-32,2.52-16-.21-29-8.83-29-24V431.81c0-15.19,11.81-26.6,28.64-26.6h20.31c16.83,0,28.13,9.9,28.13,22.71Z" transform="translate(-21.68 -105.85)"/><path class="cls-2" d="M292.74,419.62H274.07q-5.86,0-5.86,6.17V433h30.4v-7.23q0-6.17-5.86-6.17" transform="translate(-21.68 -105.85)"/><path class="cls-2" d="M505.31,453.58c0,9,8.39,7.82,10,7.82h15.34V445.6h-18s-7.33-.23-7.33,8" transform="translate(-21.68 -105.85)"/><path class="cls-2" d="M567.55,476.37l-.16-5.27-.45-10.67-.12-4-3.87-.87-2.74-.62-.32-26.88c0-6.76-3-13.71-7.35-18.67-5.93-7.4-17.7-9.3-26.55-9.3-12,0-36.53,3.06-36.53,3.06l-5.84,8.7v23.94l4.32-.88a15,15,0,0,0-2.57,1.71c-10.4,9.33-6.79,37.74-6.79,37.74,2.16,14,15.42,20.27,30.56,20.27,14.38,0,20.26-4.14,20.26-4.14l2.39,3.73h24.87L567.55,478l-.06-1.61Zm-32.26,0,.15-5.36c-17.45,13.57-50.59,9.56-50.59-15.49,0,0-.57-6.47,1-10.51,2.37-6.1,7.86-8.08,12.76-8.79,3.73-.53,11.89-.58,11.89-.58h21.14l0-3.54c0-10.64-4.45-11.51-9.34-11.63a134.08,134.08,0,0,0-28.31,2.37V407.68c5.57-1.17,20.54-2.47,32-2.47,16,0,29,8.76,29,25.71L555.1,459l6.72,1.52.13,15.77Z" transform="translate(-21.68 -105.85)"/><path class="cls-2" d="M329.65,221.63c-39.24,2.63-62.46,23.72-92.38,32C200.69,263.86,164.38,250,152,212.88c0,0,5.81,44.64,48,53.82,58.67,12.75,97-33.29,147-31.85,41.74,1.2,73.6,22.32,73.6,22.32s-28.08-37.38-91-35.53" transform="translate(-21.68 -105.85)"/><path class="cls-3" d="M282.51,176.15s29,22.38,102.73,29.32c-53.47,2.15-103.46-7.24-103.46-7.24a63.44,63.44,0,0,0,.74-22.09" transform="translate(-21.68 -105.85)"/><path class="cls-3" d="M242.11,246s59-37.16,110.62-27.2c-46-13.49-82.55-3.83-82.55-3.83Z" transform="translate(-21.68 -105.85)"/><path class="cls-2" d="M159.21,163.34s24.64-57.67,86.83-38.94c77.55,23.36,130.81,93.9,242.58,21.07-2.57,4.78-63.48,114.74-237.4,3.38-24.61-15.76-59-29.59-92,14.49" transform="translate(-21.68 -105.85)"/><path class="cls-2" d="M244.19,169.94c-6.77-7.42-18.06-10.53-23.75-11.71-5.8,4.94-14.51,15.15-17.2,18.92,3.22,7.74,11,19.35,13.54,23,15.58-.32,25.58-4.94,25.58-4.94,3.12-11.72,2.58-20.21,1.83-25.26m-18.6,4.16-11.23,4.12,8.24-12.79,14.21,7.39Z" transform="translate(-21.68 -105.85)"/><path class="cls-2" d="M214.83,127.59a62.32,62.32,0,1,0,62.32,62.32,62.32,62.32,0,0,0-62.32-62.32m-57.29,62.78c0-.15,0-.3,0-.46s0-.59,0-.89C157.54,189.49,157.54,189.92,157.54,190.36Zm98.78,21.47c-2.22-2.72-7.94-9.55-11.15-12,4.49,5.13,7.86,12.65,8.64,14.47-2.49,10.16-11.37,18.47-12.88,19.58,2.05,2,6.78,3,6.78,3a57,57,0,0,1-32.88,10.41,57.65,57.65,0,0,1-7.43-.51c4.48-1.31,9.66-4.27,12.65-6.13,7.58-.35,14.52-2.89,18.5-5.84-9.4,3-16.51,3-20.59,2.54-5.56-2.78-8.87-7.48-11.16-11.11a105.07,105.07,0,0,0,9.7-20.27c-2.77,6.92-10.17,14-13.77,17.18-8.52,1.1-18.36-1.57-25.18-3.64-1.6,7.22-.29,11.77.61,14.33A57.05,57.05,0,0,1,158,196.71c.66.43,3.17,2.05,5.71,3.56a40.24,40.24,0,0,0,12.2,17.41,28.4,28.4,0,0,1-6.43-22.06l-.11-.05a111.8,111.8,0,0,1,7.16-14.39,46.17,46.17,0,0,1,24.19-4.12c-4.72-2.06-14.47-2.71-22.89-2.24-2.9-4.82-3.85-10-3.11-13.93a42,42,0,0,1,1.9-3.81c1-1.47,1.8-2.77,2.52-3.95a36.43,36.43,0,0,1,14.06-11.88,60.89,60.89,0,0,0-32.58,20.28c22.07-29.74,46.78-30.65,63.83-26a25.56,25.56,0,0,1,2.91-.7,13.67,13.67,0,0,0-1.08-1,57.07,57.07,0,0,1,24.83,11.78,34.51,34.51,0,0,1,7.36,15.55l-10,6.45s6.74-2.53,11.22-3.94a26.28,26.28,0,0,1,9.74,11.54c3.17,16.55-.06,27-2.11,31.47A25.23,25.23,0,0,1,256.32,211.83Zm-73.53,14.26,18.12,2.55L210,240.25S193.84,238,182.79,226.09Zm-14.1-63.25,2.83,14.7-7.63,13A36.81,36.81,0,0,1,168.69,162.84Z" transform="translate(-21.68 -105.85)"/><path class="cls-2" d="M208.12,139.93c.7.1,1.4.2,2,.32l-6-.38H204c.14.09,13.1,8.59,14.76,13.46,1.42-5.49,2.61-9.13,3.25-10.94a58.25,58.25,0,0,0-13.9-2.46" transform="translate(-21.68 -105.85)"/><path class="cls-3" d="M538.26,498.61l-36.62.1c13.4,37.32,20.13,66.71,13.62,81.34-5.84,13.12-15.47,16-32.69.64-31.74-28.31-49.56-46.92-80.35-76.27l-9.09-.08c30,28.07,62.11,58.58,92.08,86.77,11,10.41,24.27,15.45,36.37,8.84,13.35-11.23,20.64-47.54,8.23-93.39l5.56.07c22.67,111.8-29.19,118-56.15,89.74-28.2-27.13-43.77-41.78-72-69L384.57,505s-30.74-.47-47.51-.43c-11.93,0-14.55-5.66-14.55-5.66A96,96,0,0,1,294.18,505c.74.71,106.12,101.41,108.48,103.62,11.72,11,37.72-3.45,50.21-20.38C461.2,598.48,465.64,616,464.43,629c21.59-1.05,42.26-3.9,59.72-13.26,13-6.62,22.21-28.7,22.42-59.95v-2c-.09-15.82-3-35.62-8.31-55.16" transform="translate(-21.68 -105.85)"/></svg>