<svg id="Capa_1" data-name="Capa 1" xmlns="http://www.w3.org/2000/svg" viewBox="0 0 90 90"><defs><style>.cls-1,.cls-4{fill:#1e120d;}.cls-1,.cls-2,.cls-3,.cls-5{fill-rule:evenodd;}.cls-2{fill:#fff;}.cls-3{fill:#007763;}.cls-5{fill:#f8be0d;}.cls-6{fill:#f7be0f;}</style></defs><title>Santos-90x90</title><polygon class="cls-1" points="57.7 30.48 57.36 30.48 57.02 30.48 56.81 30.48 56.6 30.48 36.5 30.48 36.27 30.48 36.04 30.48 35.68 30.48 35.32 30.48 35.18 30.14 35.04 29.81 34.96 29.6 34.87 29.38 32.02 22.32 31.67 21.47 31.58 21.25 31.49 21.02 31.35 20.68 31.2 20.32 31.49 20.07 31.77 19.82 31.95 19.66 32.12 19.5 32.29 19.35 33.13 18.64 33.15 18.63 33.17 18.61 33.69 18.22 33.7 18.21 33.72 18.2 33.72 18.19 33.74 18.18 34.02 18 34.03 17.99 34.06 17.97 34.34 17.8 34.63 17.64 34.64 17.63 34.67 17.61 34.97 17.46 35.3 17.3 35.58 17.17 35.91 17.03 35.92 17.02 35.95 17.01 36.28 16.89 36.56 16.79 36.91 16.67 37.22 16.58 37.59 16.48 37.9 16.4 38.26 16.32 38.55 16.25 38.57 16.25 38.6 16.24 38.96 16.18 39.26 16.13 39.57 16.08 39.92 16.03 40.28 15.98 40.89 15.92 40.91 15.92 40.93 15.91 41.3 15.89 41.57 15.87 41.58 15.87 41.6 15.87 41.96 15.86 42.23 15.84 42.5 15.83 42.5 14.88 42.5 14.54 42.5 14.2 42.5 13.66 42.5 13.12 43.04 13.12 43.46 13.12 43.46 13.08 43.46 12.54 43.46 12 44 12 44.54 12 44.88 12 45.22 12 47.8 12 48.13 12 48.47 12 49.01 12 49.55 12 49.55 12.54 49.55 13.08 49.55 13.12 50 13.12 50.54 13.12 50.54 13.66 50.54 14.2 50.54 14.54 50.54 14.88 50.54 15.83 50.74 15.84 51.09 15.86 51.36 15.87 51.37 15.87 51.4 15.87 51.76 15.89 52.02 15.91 52.03 15.91 52.06 15.91 52.42 15.95 52.74 15.98 53.05 16.02 53.4 16.07 54.06 16.18 54.37 16.23 54.38 16.23 54.41 16.24 54.77 16.32 55.07 16.39 55.37 16.46 55.39 16.47 55.42 16.48 55.47 16.49 55.7 16.55 55.72 16.55 55.75 16.56 56.1 16.67 56.39 16.77 56.72 16.88 57.02 16.99 57.03 17 57.06 17 57.39 17.14 57.72 17.3 57.99 17.43 58.32 17.59 58.33 17.6 58.35 17.61 58.65 17.79 58.93 17.95 59.24 18.16 59.52 18.35 59.52 18.35 59.54 18.36 59.56 18.37 59.59 18.4 59.86 18.62 60.91 19.48 61.34 19.83 61.54 20 61.75 20.17 62.08 20.44 62.4 20.71 62.22 21.1 62.03 21.48 61.92 21.72 61.8 21.95 61.55 22.48 58.18 29.48 58.09 29.68 58 29.87 57.85 30.17 57.7 30.48"/><polygon class="cls-1" points="46.25 76.53 46.21 76.53 45 76.5 44.99 76.5 44.96 76.5 43.76 76.41 43.74 76.41 43.7 76.4 43.11 76.33 42.53 76.25 41.34 76.04 41.32 76.04 41.28 76.03 40.14 75.76 38.99 75.44 38.97 75.43 38.94 75.42 37.84 75.05 37.55 74.94 36.73 74.61 36.72 74.61 36.7 74.6 35.63 74.11 34.58 73.58 34.57 73.57 34.54 73.56 33.54 72.98 32.55 72.35 32.54 72.34 32.51 72.32 31.59 71.67 31.58 71.66 31.55 71.64 30.66 70.93 29.77 70.16 28.92 69.36 28.9 69.34 28.88 69.32 28.11 68.5 27.34 67.61 27.33 67.61 27.32 67.59 26.6 66.68 26.59 66.67 26.58 66.66 26.58 66.65 26.57 66.63 25.92 65.72 25.28 64.74 25.27 64.72 25.25 64.69 24.68 63.7 24.67 63.69 24.66 63.66 24.14 62.64 24.13 62.63 24.12 62.62 24.12 62.61 24.11 62.59 23.64 61.55 23.63 61.53 23.62 61.5 23.2 60.44 23.2 60.43 23.19 60.41 22.82 59.3 22.81 59.29 22.8 59.26 22.48 58.14 22.2 56.96 22.2 56.94 22.2 56.91 21.98 55.74 21.98 55.73 21.98 55.69 21.83 54.52 21.83 54.5 21.82 54.47 21.74 53.27 21.7 52.03 21.7 52.02 21.7 51.99 21.7 51.99 21.7 51.96 21.73 50.76 21.82 49.52 21.82 49.5 21.83 49.47 21.98 48.29 21.98 48.27 21.98 48.24 22.19 47.09 22.2 47.08 22.2 47.05 22.48 45.9 22.8 44.74 22.8 44.73 22.81 44.7 23.19 43.6 23.62 42.49 23.63 42.47 23.64 42.44 24.11 41.4 24.12 41.39 24.13 41.37 24.66 40.34 24.66 40.33 24.67 40.31 25.24 39.31 25.25 39.3 25.27 39.27 25.89 38.31 26.57 37.35 26.57 37.34 26.59 37.32 27.31 36.42 28.07 35.53 28.88 34.68 28.89 34.67 28.91 34.65 29.73 33.86 29.74 33.85 29.76 33.84 30.62 33.09 30.63 33.09 30.64 33.07 31.55 32.36 31.56 32.36 31.57 32.34 32.51 31.68 33.5 31.04 33.51 31.03 33.53 31.02 34.53 30.45 34.54 30.44 34.57 30.43 35.59 29.9 35.6 29.9 35.62 29.89 35.62 29.88 35.64 29.88 36.68 29.41 36.69 29.4 36.72 29.39 37.53 29.07 37.77 28.97 37.79 28.96 37.83 28.95 38.94 28.58 40.09 28.24 40.1 28.24 40.13 28.23 41.28 27.97 41.3 27.96 41.33 27.96 42.48 27.75 42.49 27.75 42.53 27.74 43.13 27.67 43.7 27.59 43.72 27.59 43.75 27.59 44.95 27.49 44.96 27.49 44.99 27.49 46.22 27.46 47.47 27.49 47.49 27.49 47.52 27.49 48.72 27.59 48.73 27.59 48.75 27.59 49.93 27.74 49.94 27.74 49.97 27.75 50.09 27.77 51.14 27.96 51.16 27.96 51.18 27.96 52.32 28.23 52.34 28.23 52.38 28.24 53.49 28.57 54.63 28.94 54.64 28.95 54.68 28.96 55.57 29.32 55.74 29.38 55.75 29.39 55.79 29.41 56.83 29.88 56.84 29.88 56.87 29.89 57.89 30.42 57.9 30.43 57.92 30.44 58.92 31.01 58.93 31.02 58.95 31.03 59.92 31.65 60.88 32.33 60.89 32.34 60.91 32.35 61.81 33.06 61.81 33.06 61.84 33.08 62.7 33.83 62.71 33.84 62.74 33.86 63.55 34.65 63.56 34.66 63.58 34.67 64.36 35.5 65.14 36.38 65.15 36.39 65.16 36.41 65.87 37.31 65.88 37.32 65.89 37.34 66.55 38.27 67.19 39.27 67.2 39.28 67.22 39.3 67.79 40.29 67.79 40.3 67.8 40.33 68.33 41.36 68.34 41.37 68.35 41.4 68.82 42.44 68.83 42.45 68.84 42.48 69.27 43.55 69.28 43.57 69.29 43.6 69.65 44.69 69.66 44.7 69.67 44.72 69.99 45.86 69.99 45.87 70 45.91 70.27 47.04 70.27 47.05 70.27 47.07 70.48 48.23 70.49 48.26 70.49 48.29 70.64 49.46 70.64 49.48 70.64 49.5 70.74 50.7 70.74 50.71 70.74 50.74 70.77 51.97 70.74 53.22 70.74 53.24 70.74 53.27 70.64 54.47 70.64 54.48 70.64 54.5 70.49 55.69 70.49 55.71 70.48 55.74 70.28 56.9 70.27 56.91 70.27 56.94 70 58.09 70 58.1 69.99 58.15 69.67 59.26 69.29 60.39 69.28 60.41 69.27 60.45 68.84 61.51 68.36 62.59 68.35 62.61 68.34 62.63 67.81 63.66 67.81 63.67 67.8 63.69 67.22 64.68 67.21 64.7 67.2 64.73 66.58 65.68 65.9 66.63 65.9 66.64 65.89 66.66 65.18 67.57 65.17 67.58 65.16 67.6 65.15 67.6 65.14 67.62 64.39 68.47 63.59 69.31 63.58 69.33 63.55 69.35 62.73 70.13 61.85 70.9 60.92 71.63 60.92 71.64 60.9 71.66 59.96 72.32 59.94 72.33 59.92 72.34 58.96 72.95 57.95 73.55 57.94 73.56 57.91 73.57 57.91 73.57 57.89 73.58 56.87 74.09 55.8 74.59 55.79 74.59 55.75 74.61 55.55 74.68 54.68 75.03 54.67 75.03 54.65 75.04 53.54 75.42 53.53 75.42 53.5 75.43 52.37 75.75 51.2 76.03 51.19 76.03 51.16 76.04 50.08 76.22 49.99 76.24 49.97 76.24 49.95 76.25 48.78 76.4 48.76 76.41 48.72 76.41 47.52 76.5 47.52 76.5 47.49 76.5 46.27 76.53 46.25 76.53"/><path class="cls-2" d="M46.24,30.17A21.83,21.83,0,1,1,24.41,52,21.87,21.87,0,0,1,46.24,30.17"/><path class="cls-3" d="M31.48,40l-4.6,1.88a21.59,21.59,0,0,0-2.47,9.36l3.09,3.68,4-7ZM29.38,60.6l-.22,5a22.18,22.18,0,0,0,1.64,1.84,21.94,21.94,0,0,0,5.94,4.23l4.52-1.2L36.63,63.9ZM53.22,31.3A21.92,21.92,0,0,0,40.13,31L39.2,34.3l7.65,2.39,7.77-1.79ZM65.46,41.65,61.08,40,61,48l3.93,6.94,3.17-4h0a21.64,21.64,0,0,0-2.59-9.29M54.59,64.6l-5,6.24,4.78,1.41a22,22,0,0,0,7.26-4.82c.16-.17.33-.34.49-.52l-.07-5.22Z"/><path class="cls-1" d="M43,42.4H41.8a.62.62,0,0,0-.18-.41.61.61,0,0,0-.44-.16.64.64,0,0,0-.52.24,1.38,1.38,0,0,0-.21.83,1.05,1.05,0,0,0,.11.58.69.69,0,0,0,.23.3.9.9,0,0,0,.39.11.62.62,0,0,0,.44-.16.6.6,0,0,0,.18-.47H43a1.44,1.44,0,0,1-.14.57,1.75,1.75,0,0,1-.33.47,1.57,1.57,0,0,1-.55.37,1.74,1.74,0,0,1-.75.13,2,2,0,0,1-.79-.13,1.43,1.43,0,0,1-.59-.34,2.22,2.22,0,0,1-.4-.55,2.14,2.14,0,0,1-.17-.91,3,3,0,0,1,.12-.8,2,2,0,0,1,.4-.63,1.74,1.74,0,0,1,.54-.39,2.28,2.28,0,0,1,.84-.15,2.6,2.6,0,0,1,.74.12,1.42,1.42,0,0,1,.58.34,1.54,1.54,0,0,1,.36.55,1.69,1.69,0,0,1,.11.49"/><polygon class="cls-1" points="45.92 44.69 43.05 44.69 43.05 41 44.25 41 44.25 43.73 45.92 43.73 45.92 44.69"/><path class="cls-1" d="M46,43.16V41h1.23v2.29a.7.7,0,0,0,.05.34.39.39,0,0,0,.18.18.74.74,0,0,0,.34.08.59.59,0,0,0,.42-.16.54.54,0,0,0,.15-.44V41h1.19v2.16a4.64,4.64,0,0,1,0,.65,1.58,1.58,0,0,1-.24.42,1,1,0,0,1-.34.31,2.18,2.18,0,0,1-.49.2,4.2,4.2,0,0,1-.62.06,4.46,4.46,0,0,1-.7-.06,2.75,2.75,0,0,1-.5-.2,1.22,1.22,0,0,1-.33-.31,1.17,1.17,0,0,1-.24-.5,3.09,3.09,0,0,1,0-.57"/><path class="cls-1" d="M51.7,41.86a.39.39,0,0,1,.19.1.46.46,0,0,1,0,.21.28.28,0,0,1-.1.23.69.69,0,0,1-.38.08v.68h0a.94.94,0,0,1,.46.08.3.3,0,0,1,.13.26.32.32,0,0,1-.13.26.72.72,0,0,1-.46.1h0v.83h.22a4.4,4.4,0,0,0,.6,0,2.6,2.6,0,0,0,.36-.13,1.17,1.17,0,0,0,.27-.19.91.91,0,0,0,.22-.33,1,1,0,0,0,.08-.42A1,1,0,0,0,53,43a.86.86,0,0,0-.44-.29.88.88,0,0,0,.47-.78.79.79,0,0,0-.42-.75,1.83,1.83,0,0,0-1-.21h-.17v.83a.62.62,0,0,1,.24,0m-.24.62H51v-.65h.48V41H49.81v3.69h1.65v-.83H51v-.7h.48Z"/><polygon class="cls-1" points="38.52 60.94 35.95 60.94 35.95 57.61 37.04 57.61 37.04 60.05 38.52 60.05 38.52 60.94"/><path class="cls-1" d="M40.52,58.66l.35,1.16h-.35v.7h.53l.13.41h1.09l-1.19-3.32h-.56Zm-.35,1.16.33-1.2,0,0v-1H40l-1.2,3.32h1.07l.13-.41h.56v-.7Z"/><path class="cls-1" d="M45.45,58.83h-1a.59.59,0,0,0-.19-.29.56.56,0,0,0-.33-.1.52.52,0,0,0-.47.23,1,1,0,0,0-.21.71.93.93,0,0,0,.21.7.5.5,0,0,0,.47.23.6.6,0,0,0,.38-.13.53.53,0,0,0,.22-.26H44V59.2H45.5V61h-.7l-.06-.34a.55.55,0,0,1-.23.21.53.53,0,0,1-.32.15,1.33,1.33,0,0,1-.44.06,1.77,1.77,0,0,1-.8-.18,1.57,1.57,0,0,1-.6-.6,1.84,1.84,0,0,1-.21-.94,2,2,0,0,1,.13-.78,1.86,1.86,0,0,1,.34-.52,1.73,1.73,0,0,1,.49-.34,2.13,2.13,0,0,1,.79-.15,1.72,1.72,0,0,1,.83.18,1.37,1.37,0,0,1,.55.52,1.58,1.58,0,0,1,.18.52"/><path class="cls-1" d="M45.9,59.53V57.61H47v2c0,.16,0,.27,0,.32a.47.47,0,0,0,.16.19.75.75,0,0,0,.31,0c.16,0,.29,0,.36-.13s.13-.2.13-.42v-2h1.09v1.92a3.32,3.32,0,0,1-.05.61,2,2,0,0,1-.19.35,1.4,1.4,0,0,1-.76.47,3.58,3.58,0,0,1-.58,0,3.37,3.37,0,0,1-.6,0,1.3,1.3,0,0,1-.44-.18,2.37,2.37,0,0,1-.34-.29.85.85,0,0,1-.18-.44,1.4,1.4,0,0,1-.05-.52"/><polygon class="cls-1" points="50.55 60.94 49.49 60.94 49.49 57.61 50.5 57.61 51.65 59.38 51.65 57.61 52.72 57.61 52.72 60.94 51.68 60.94 50.55 59.2 50.55 60.94"/><path class="cls-1" d="M54.76,58.64l0,0,.33,1.23h-.35v.67h.56l.11.44h1.09l-1.2-3.32h-.56Zm-.35,1.18.35-1.18v-1h-.53L53,60.93H54.1l.13-.44h.53v-.67Z"/><path class="cls-1" d="M36.41,48.58A5.94,5.94,0,0,1,38,46.78h.59A6,6,0,0,0,36.81,49a2.06,2.06,0,0,1,1.86,2,0,0,0,0,0,0,0v.14c-.07,1.08-1.32,2.49-2.27,3.28v-.53a.79.79,0,0,1,.13.13,4,4,0,0,0,1.13-1.21,1.48,1.48,0,0,0,.27-1.13c0-.54-1-1.14-1.53-1.4Zm0-2.67V47l1.35-1.16-.41-.41-.65.75a1.82,1.82,0,0,0-.29-.27m0,6.33a.74.74,0,0,1,.26.33c.17.43.17.4.12.62.34-.08,1.26-.78.69-1.62a2.46,2.46,0,0,0-1.07-.87Zm-1.79-6.06c-1.43-.49-1.84.89-1.18,1.55a6.89,6.89,0,0,0,2.89,1,1.3,1.3,0,0,1,.08-.17v1.73l-.14-.06-.19.34a2.51,2.51,0,0,1,.33.11v1.54a2.85,2.85,0,0,0-1-.45l-.54,1.08a5.77,5.77,0,0,1,1.54,1.05v.53a2.88,2.88,0,0,1-.9.57A2.36,2.36,0,0,0,34,53.94,4.76,4.76,0,0,1,31.9,56.5v-.31a4.53,4.53,0,0,0,1.4-1.79c.06-.16.32-.4.09-.56a2.37,2.37,0,0,0-1.49.1V53a4.86,4.86,0,0,1,2.32-.4c0-.06.4-.73.53-1.06A3.85,3.85,0,0,1,31.9,50V48.23a.48.48,0,0,1,.16-.08,1.56,1.56,0,0,0,.49,1.06,7.82,7.82,0,0,0,2.89,1l.18-.22c-.18-.16-1.78-.58-2.43-.81a1.66,1.66,0,0,1-1-1.82c.27-1.71,2.88-2.53,4.27-1.44V47l-.49.43a8.23,8.23,0,0,0-1.3-1.25M31.9,56.5c-.7.44-1.38.62-1.73.33a2.16,2.16,0,0,1,.13-2.59A4.54,4.54,0,0,1,31.9,53v.94a3.5,3.5,0,0,0-1,.76,4.69,4.69,0,0,0-.57,1.13c-.19.68.4.87.84.71a3.27,3.27,0,0,0,.7-.35Zm0-6.46a1.34,1.34,0,0,1-.3-.64,1.51,1.51,0,0,1,.3-1.17Z"/><path class="cls-1" d="M40.72,50.06c.53-.09.82-.58,1.08-.91l.51,0c.09.29.33.68.57.73l.35-.28.27.3a11.84,11.84,0,0,0-.78.92v2.43a.52.52,0,0,0,.59.33l.16-.25.22.16a2.19,2.19,0,0,1-.94,1.19c-.84.41-1.19-.62-1.22-.89-.34.23-.52.51-.81.71v-.77a.82.82,0,0,0,.24-.1,2.42,2.42,0,0,0,.6-.54V50.74c-.16-.15-.38-.25-.38-.49a.76.76,0,0,1-.46.43Zm0,2,.27.31.35-.38s-.32-.42-.62-.78Zm-1.24-1.61a.81.81,0,0,1,.11-1.28c.91-.19,1,.58.94.87a.58.58,0,0,0,.19,0v.62a1,1,0,0,1-.37.08c.07.1.22.28.37.49v.85l-.19-.23a1.28,1.28,0,0,0-.43,1.76.64.64,0,0,0,.62.12v.77a1.31,1.31,0,0,1-.91.21c-2-.65-.52-2.61.46-3.16,0,0-.33-.51-.79-1.08"/><path class="cls-1" d="M43.55,50.2l1-1c.56-.08.91.23.91,1.54.57-.6,1.46-1.5,1.46-1.5a.57.57,0,0,1,.76,0c.13.21.27.69.73.48s.37-.24.37-.24l.24.32a3.66,3.66,0,0,1-.77.89v3c.07.13.1.21.21.21s.24-.23.24-.23l.29.34-.8.84a.48.48,0,0,1-.56.1,1.34,1.34,0,0,1-.6-1v-3l-.37-.6-1.14,1.16v2.27a.66.66,0,0,0,.35.16c.13,0,.25-.26.25-.26l.34.13-.86,1.13c-.19.13-.57.13-.67-.08s-.36-.43-.52-.41a1.15,1.15,0,0,0-.45.3l-.31-.27a5.69,5.69,0,0,1,.74-.75V50.6c-.08-.19-.19-.38-.52-.11Z"/><path class="cls-1" d="M49.86,49.12V46.91l1.21-.7v2.88c.16.06.3.12.39.06a.64.64,0,0,0,.18-.24h.43a1.77,1.77,0,0,1-.45.94h-.55V53.3c.16.21.16.33.3.24s.38-.32.38-.32l.32.38a6,6,0,0,1-1,1,.72.72,0,0,1-.67.11c-.19-.15-.16-.66-.68-.38-.35.16-.35.18-.35.18l-.24-.4a3.73,3.73,0,0,1,.73-.62V50a.39.39,0,0,0-.29,0c-.08.08-.23.16-.2.27H49a2.73,2.73,0,0,1,.45-1.1Z"/><path class="cls-1" d="M54.33,49.43a2.26,2.26,0,0,0,.41-.28c.08-.11.22-.16.41,0s.7.73,1,.67.35-.19.48-.45l.22.37a3,3,0,0,1-.68.81v2.94a1.65,1.65,0,0,0,.36.19v.29c-.11,0-1,.11-1.33.14a2.22,2.22,0,0,0-.84.46v-.81l.17.11a2.8,2.8,0,0,1,.49-.21V50.71a2.57,2.57,0,0,1-.66-.44Zm-2,1c-.05-.11,0-.21.17-.43a3.52,3.52,0,0,0,1.85-.55v.84a.56.56,0,0,1-.15-.32l-.49.35v3l.64.41v.81a2.59,2.59,0,0,1-.37.29,1,1,0,0,1-.62,0c-.11-.13-.43-.54-.57-.67s-.34.11-.62.19L52,54.19a3.84,3.84,0,0,1,.67-.59V50.71c0-.19-.25-.19-.33-.3"/><path class="cls-1" d="M59,48.93c.16-.14.19-.14.31,0s.54.58.92.44a1.6,1.6,0,0,0,.62-.36,1,1,0,0,1,.21.36l-1.34,2h1.48c.19.05.27.21.11.35a.29.29,0,0,1-.22.06v1.69c.19.11.3,0,.3.17s0,.19-.16.21c-.51.11-1.6.49-1.78.92a.29.29,0,0,1-.41,0l0,0V53.31c.48-.08.68.2,1,.39V52h-.79l-.17.26v-.82h.2l1.06-1.54a1.57,1.57,0,0,1-1.26.41Zm-.63,3.45H57.12c-.22-.08-.3-.26-.08-.41s.4-.21.4-.21V50.3c-.19-.1-.51-.24-.46-.45a2.6,2.6,0,0,1,1-.23A1.82,1.82,0,0,0,59,49l0,0v1.35a.67.67,0,0,1-.55-.49l0,1.62H59v.82l-.91,1.31s-.29.22.49-.11a1.36,1.36,0,0,1,.42-.12v1.33a1.21,1.21,0,0,0-1.63,0L57,54.53Z"/><polygon class="cls-1" points="59.77 60.94 59.38 60.94 59.38 59.33 59.04 60.94 58.63 60.94 58.28 59.33 58.28 60.94 57.92 60.94 57.92 59.01 58.49 59.01 58.83 60.52 59.19 59.01 59.77 59.01 59.77 60.94"/><rect class="cls-4" x="60.11" y="60.54" width="0.42" height="0.39"/><path class="cls-1" d="M61.67,59h.18a.55.55,0,0,1,.6.55.46.46,0,0,1-.29.46c.16,0,.24.11.24.47s0,.34.07.39v0H62a2,2,0,0,1,0-.39c0-.25,0-.36-.32-.36h0v-.31h.07c.22,0,.32-.07.32-.26a.25.25,0,0,0-.29-.26h-.1Zm-.78,0h.78v.34h-.4v.52h.4v.31h-.4v.75h-.38Z"/><rect class="cls-4" x="62.75" y="60.54" width="0.42" height="0.39"/><path class="cls-5" d="M55.65,23.63,55.11,26h-.68l0-.54c.06-.05.06-.2.19-.25a.72.72,0,0,1-.52-.37.78.78,0,0,1-.55.37c.14.05.14.2.19.25V26H52.33l0-.79a2.42,2.42,0,0,1,.39-.48,1.51,1.51,0,0,1-.78-.33,1.88,1.88,0,0,1-.89.33,2.86,2.86,0,0,1,.45.48V26H49.75l0-.54c.06-.05.06-.2.19-.25a.72.72,0,0,1-.52-.37.78.78,0,0,1-.54.37c.12.05.12.2.17.25V26H47.7l0-1.21c.08-.08.62-.81.83-.84a3.88,3.88,0,0,1-2-1.2.47.47,0,0,0-.05.1,4.51,4.51,0,0,1-2,1.1,8.18,8.18,0,0,1,1.1.78V26H44.32l0-.54c0-.05,0-.2.18-.25a.68.68,0,0,1-.52-.37.8.8,0,0,1-.55.37c.13.05.13.2.18.25V26H41.72v-.79a2.83,2.83,0,0,1,.39-.48,1.51,1.51,0,0,1-.78-.33,1.93,1.93,0,0,1-.88.33,3.9,3.9,0,0,1,.44.48V26l-1.2,0,0-.52c.05-.08.07-.23.18-.25a.76.76,0,0,1-.52-.37,1.31,1.31,0,0,1-.13.16.69.69,0,0,1-.39.21c.1,0,.13.17.18.25V26h-.91v-2.1L34.78,22.2l2.31,5.72H56.15l2.78-5.79ZM39.25,27.2a.27.27,0,0,1-.29-.26.29.29,0,0,1,.58,0,.27.27,0,0,1-.29.26m3.51,0a.26.26,0,0,1-.28-.26.27.27,0,0,1,.28-.28.28.28,0,0,1,.29.28.27.27,0,0,1-.29.26m3.78,0a.26.26,0,0,1-.29-.26.28.28,0,0,1,.29-.28.28.28,0,0,1,.28.28.26.26,0,0,1-.28.26m3.79,0h0a.24.24,0,0,1-.26-.26.26.26,0,0,1,.26-.28h0a.28.28,0,0,1,.28.28.27.27,0,0,1-.28.26m3,0a.27.27,0,0,1-.29-.26.29.29,0,0,1,.58,0,.27.27,0,0,1-.29.26M36.86,22.28a11.62,11.62,0,0,1,2.39-1.59,8.67,8.67,0,0,1,2.91-.91c-.52.46-2.56,1.72-2.91,2.75a.69.69,0,0,0,0,.28h0l1.9.86a11.62,11.62,0,0,1,1.61-2.05A8.18,8.18,0,0,1,45,19.76a.72.72,0,0,0,.58.81,2,2,0,0,0-1.12,1.71h1.43c0-.36.16-1,.66-1h0c.52-.05.7.6.67,1h1.45a2,2,0,0,0-1.13-1.71.71.71,0,0,0,.6-.81,8.15,8.15,0,0,1,2.18,1.84A11.26,11.26,0,0,1,52,23.68l1.36-.62.57-.25a1.77,1.77,0,0,0-.57-1.08A22.79,22.79,0,0,0,51,19.78a8,8,0,0,1,2.39.67,11.73,11.73,0,0,1,2.94,1.83,2.15,2.15,0,0,1,2.23-1.51,10.43,10.43,0,0,0-5.17-2.14,23.19,23.19,0,0,0-3-.24H47.39A.69.69,0,0,0,47,18V16.48h1v-.81h-1V14.56h-1v1.11h-1v.81h1V18a.67.67,0,0,0-.39.37h-3a20.66,20.66,0,0,0-3.51.34,9.79,9.79,0,0,0-4.63,2,2.18,2.18,0,0,1,2.24,1.51m9.68-4.05h0a.57.57,0,0,1,.57.57.58.58,0,0,1-.57.57h0A.56.56,0,0,1,46,18.8a.55.55,0,0,1,.53-.57"/><polygon class="cls-6" points="24.61 72.07 23.86 69.91 23.1 72.07 20.77 72.11 22.61 73.51 21.94 75.71 23.86 74.38 25.71 75.71 25.05 73.51 26.88 72.11 24.61 72.07"/><polygon class="cls-6" points="34.61 78.92 33.86 76.76 33.1 78.92 30.77 78.96 32.63 80.36 31.94 82.56 33.86 81.24 35.72 82.56 35.03 80.36 36.88 78.96 34.61 78.92"/><polygon class="cls-6" points="47.32 81.36 46.57 79.2 45.81 81.36 43.49 81.4 45.34 82.8 44.66 85 46.57 83.68 48.43 85 47.75 82.8 49.6 81.4 47.32 81.36"/><polygon class="cls-6" points="61.69 78.96 59.41 78.92 58.67 76.76 57.9 78.92 55.58 78.96 57.42 80.36 56.75 82.56 58.67 81.24 60.52 82.56 59.84 80.36 61.69 78.96"/><polygon class="cls-6" points="71.67 72.11 69.39 72.07 68.66 69.91 67.88 72.07 65.56 72.11 67.4 73.51 66.73 75.71 68.66 74.38 70.5 75.71 69.82 73.51 71.67 72.11"/></svg>