<svg id="Capa_1" data-name="Capa 1" xmlns="http://www.w3.org/2000/svg" viewBox="0 0 465.96 702.11"><defs><style>.cls-1{fill:#fafbfb;}.cls-2{fill:#00369c;}.cls-3{fill:#f1a21e;}.cls-4{fill:#fff;}</style></defs><title>tigres_uanl</title><polygon class="cls-1" points="456.02 0 9.94 0 0 0 0 9.94 0 692.17 0 702.11 9.94 702.11 456.02 702.11 465.96 702.11 465.96 692.17 465.96 9.94 465.96 0 456.02 0"/><rect class="cls-2" x="9.94" y="9.94" width="446.08" height="682.23"/><path class="cls-3" d="M577.6,418.73V537.59c-15.62-5.26-25.45-20.11-65.6-20.11s-50,14.85-65.6,20.11V418.73H289v52.48h13.12a13.12,13.12,0,0,1,13.12,13.12l.53,211.38s-5.4,167.81,195.72,169.09h1.09c201.11-1.28,195.72-169.09,195.72-169.09l.53-211.38a13.12,13.12,0,0,1,13.12-13.12H735V418.73Z" transform="translate(-279.02 -277.59)"/><polygon class="cls-3" points="16.5 35.31 16.5 25.57 71.41 25.57 71.41 35.31 49.06 35.31 49.06 125.52 38.86 125.52 38.86 35.31 16.5 35.31"/><rect class="cls-3" x="84.49" y="25.56" width="10.06" height="99.95"/><path class="cls-3" d="M494.32,319.9l-7.78,7.34a59.61,59.61,0,0,0-18.45-12.46,49.86,49.86,0,0,0-19.55-4.24A46.84,46.84,0,0,0,426,316.32,42.17,42.17,0,0,0,409.39,332a40.27,40.27,0,0,0-5.89,20.91,41.11,41.11,0,0,0,6.08,21.45,43.08,43.08,0,0,0,16.81,16,48.58,48.58,0,0,0,23.51,5.82q15.51,0,26.25-8.68A34.18,34.18,0,0,0,488.87,365h-32v-9.74h43.31Q500,378.38,486.35,392t-36.67,13.62q-27.89,0-44.15-18.88A50,50,0,0,1,393,353.1a51.88,51.88,0,0,1,26.88-45.55,57.68,57.68,0,0,1,28.32-6.9,63.49,63.49,0,0,1,24.08,4.57A72,72,0,0,1,494.32,319.9Z" transform="translate(-279.02 -277.59)"/><path class="cls-3" d="M519.76,303.16h20q16.74,0,22.69,1.36A25.9,25.9,0,0,1,577,313.24a24.78,24.78,0,0,1,5.61,16.47A26.51,26.51,0,0,1,578.78,344a24,24,0,0,1-11,9.35q-7.17,3.15-19.82,3.22L584,403.11H571.71l-36.12-46.5h-5.77v46.5H519.76Zm10.06,9.75v34l17.33.14q10.07,0,14.9-1.91a15.51,15.51,0,0,0,7.54-6.08,16.82,16.82,0,0,0,2.71-9.33,16.14,16.14,0,0,0-2.74-9.15,15.28,15.28,0,0,0-7.19-5.88q-4.46-1.76-14.8-1.76Z" transform="translate(-279.02 -277.59)"/><polygon class="cls-3" points="326.05 25.57 383.48 25.57 383.48 35.31 336.11 35.31 336.11 66.63 383.06 66.63 383.06 76.38 336.11 76.38 336.11 115.77 383.06 115.77 383.06 125.52 326.05 125.52 326.05 25.57"/><path class="cls-3" d="M669.66,384.4l8.53-5.09q9,16.56,20.82,16.56a20.09,20.09,0,0,0,9.49-2.34,16.65,16.65,0,0,0,6.75-6.28,16.17,16.17,0,0,0,2.33-8.35,16.85,16.85,0,0,0-3.42-9.84q-4.72-6.67-17.23-16t-15.66-13.66a24.82,24.82,0,0,1-5.33-15.27,23,23,0,0,1,3.15-11.88,22.41,22.41,0,0,1,8.86-8.45,25.76,25.76,0,0,1,12.42-3.09,26.66,26.66,0,0,1,13.32,3.49q6.19,3.51,13.11,12.87l-8.19,6.18q-5.7-7.49-9.71-9.87a16.86,16.86,0,0,0-8.75-2.38,13.94,13.94,0,0,0-10,3.67,12,12,0,0,0-3.88,9,15.28,15.28,0,0,0,1.37,6.31,23.23,23.23,0,0,0,5,6.66q2,1.9,13,10,13.09,9.58,17.95,17.06a27.34,27.34,0,0,1,4.86,15q0,10.87-8.3,18.9a28,28,0,0,1-20.19,8,29.66,29.66,0,0,1-16.6-4.88Q675.94,395.86,669.66,384.4Z" transform="translate(-279.02 -277.59)"/><path class="cls-2" d="M537.22,772.68C530.88,772.77,518.7,783,512,783s-18.88-10.19-25.22-10.27c-2.36,0-3.75.62-4.44,1.75a7.45,7.45,0,0,0-.65,3.88c.08,8.45,10.63,13.84,16,17.29s10.07,11.18,13.18,17l.14.26h2l.14-.26c3.11-5.78,7.81-13.52,13.18-17s15.9-8.84,16-17.29a7.44,7.44,0,0,0-.65-3.87C541,773.3,539.58,772.67,537.22,772.68Z" transform="translate(-279.02 -277.59)"/><path class="cls-2" d="M597.7,689.1c1.68-.51,3.23-1.62,3.22-3.63,0-1.38-1-3-.92-4-.12-1.51,3.47-4.87,7.52-7.79s8.22-5.61,9.93-6.9h1.79c5.52,7.33,7.86,8,7.85,13.06,0,.61-.25.77-1,1-1.1.29-3,.17-4.59.5a3.46,3.46,0,0,0-3.16,3.64c0,1.27,1.39,10.6,1.38,11.67,0,4.8-5.07,9.15-11.18,12.22s-13.07,4.91-16.31,5l-.65,0,.19.62c1.06,3.4,4,9,7.29,13.82s6.8,8.84,9.66,8.94c4.14-.05,10.41-4.8,15.86-10.53s9.9-12.43,9.94-16.8a2.16,2.16,0,0,0-1.11-1.67c-.45-.34-.71-.58-.73-.83.28-1,5-15.15,5.07-19.19.06-15.76-4.29-27.39-19.86-29.17l0-1.07c5.37-1,9.8-4.17,9.76-11.52,0-5.79-3.24-11.38-3.22-16.79,0-.65-.11-1.43-.11-2.21.09-1.72.26-3.06,3.07-3.13,1.61,0,2.75,1.38,4.13,3s3,3.41,5.75,3.5h.11l1.73-.75.05-.24a6.84,6.84,0,0,0,.45-2.06c0-3.53-4.91-12.71-5.73-14.24-10.71-18.8-29.62-39.19-39.65-57.92l-.14-.26h-.28c-18.06-.52-26.23-4.95-31-9.2s-6.17-8.61-10.89-8.68c-1.35,0-3.81,1.46-6.44,2.86s-5.26,2.79-6,2.74c-.39.08-3.16-1.64-6.39-3.92s-7.37-5.11-11.2-7.33l-.66.69a51.61,51.61,0,0,0,4.29,5.6,4.82,4.82,0,0,1,1.28,3.58c0,.89-2.25,5.32-2.3,6.77a28.82,28.82,0,0,0,.59,4.89c.49,2,1,4.05,2.66,4.22,1.31,0,8.67-1.88,9.66-1.87,1.89,0,7.77,1.36,13.09,2.76,2.67.7,5.22,1.4,7.12,1.94l2.3.67.65.2.17.06h0c.79.45,4.64,3.62,6.34,3.71,1.46-.06,5.37-2.4,6.21-2.33,1.39-.08,6.32,3.38,10.67,7s8.54,7.45,9,8c2,2.13,21.84,28.65,21.73,35.14,0,1.83-.93,2.45-2.06,3.14s-2.52,1.22-2.55,2.93c.09,1.42,1.83,3.26,3.53,6.08A19.76,19.76,0,0,1,617,635.31a18.91,18.91,0,0,1-3.58,10.33c-2.2,3.1-5.2,5.29-8.35,5.28-1.07,0-12.34-1.4-13.58-1.4-18.44-.09-30.8,4.71-34,29l-1.08.09c-.3-1-.64-2-1.15-3.5l-.21-.61-.53.36c-5.26,3.68-7.89,14.18-7.92,19.67,0,5.28,1.84,15.22,5.76,20.55l.15.2h2.21l.12-.32a95,95,0,0,0,3.58-14.59c5.05-8.17,7.89-18.4,14.21-23.34,3.29-2.65,11.14-2.32,15.57-4.9,5.16-3.07,9.21-10.05,12.85-15.57,2.68.36,5.51.85,7.85,1.23v1.1a2.52,2.52,0,0,0-1.39.79c-8,9.9-16.61,22.39-29.43,23.45l-1,.08.68.74c3.75,4.06,10.82,5.7,14.91,5.71A18,18,0,0,0,597.7,689.1Z" transform="translate(-279.02 -277.59)"/><path class="cls-2" d="M693.4,702V659.52c0-13.21-2.1-26.48-20.63-36.21-8.91-4.6-37.94-33.57-37.8-46.77,0-3.71,2.4-4.34,4.8-4.4,3.21,0,8.94,2.51,13.74,6.09s8.72,8.24,8.69,12.18c0,.11,0,.21,0,.31l-.06,1.21.89-.82c2.66-2.48,4.46-6.28,7.57-8.75s8.91-3.14,12.1-7.42c5.42-7.41,8.84-18.8,12.07-27.58l0-.11-.67-7.37-1-.12c-3.66,10.87-11.79,28-24.58,29.1l-.27,0-.12.24c-1.23,2.52-6.22,9.16-9.33,9-4.1.08-9.21-5.66-15.38-11.53s-13.64-11.79-23-11.8c-5.05,0-11.66,2.47-11.77,7.49.1,11.54,17.21,25.87,34.2,42.72s33.93,36,33.9,56.19l-1.84,28c0,6.32,2.2,16.52,3.89,21.94a76.17,76.17,0,0,0,5.91,10.49c3.08,4.6,6.2,9,8.64,9.15,1.33-.12,1.77-1.54,2.21-2.78a14.89,14.89,0,0,0,.59-2.84Z" transform="translate(-279.02 -277.59)"/><path class="cls-2" d="M605.49,530.6c6.6-.05,13.65-6.91,21.48-13.65s16.31-13.43,25.23-13.41c.58-.11,2.88,1.95,4.93,4.06s4.12,4.24,5.71,4.34h13.23c7.46-.15,12.43,14.74,16,18.5l.84.86v-5.21a.41.41,0,0,1,0-.08c0-4.73-5.63-22.45-6.59-24-1.39-2-5.88-3.08-10.73-3.9a92.13,92.13,0,0,0-12.32-1.1c-29.38,0-50.49,21.61-58.44,21.46-1,0-7.8-1.81-9.22-1.83h-3.9l0,.53C592.43,529.36,598.69,530.71,605.49,530.6Z" transform="translate(-279.02 -277.59)"/><path class="cls-2" d="M645,634.48l-1.21-.76.48,1.34c1.89,5.27,4,10.29,3.94,11a2.25,2.25,0,0,1-1.55,2.43c-.81.36-2.12.72-2.13,2.24s2.23,5.28,2.66,8c.86,5,1,10.21,1.49,15.34l.46,14.44A144.29,144.29,0,0,1,646.68,714c-2.13,10.61-6.18,20.06-13,20h-10c-2.69.09-4.52,3.26-6.37,6.79-1.72,3.36-3.35,7.2-5,9.39L579,725.42l-.29.22a1.7,1.7,0,0,0-.84,1.82c.13,1,1.5,2.37,3.66,5.11,6.45,8,19.67,25.1,22.64,48.57l.05.43h2.13c2.42-.15,4.84-2.42,6.78-5s3.42-5.5,3.45-7.16c-.09-2.25-2.83-4.81-2.76-6.77s1.85-5.5,4.36-8.44,5.65-5.34,7.8-5.3c1,0,12.49,2.79,13.8,2.8a17.11,17.11,0,0,0,4.47-1.22c1.79-.75,3.45-1.44,3.92-2.54,3.12-9.07,13.44-26.8,13.5-37.79L659.82,691c.05-4,1.35-5,2.83-6.33s3.18-2.88,3.15-7.16C665.77,666.93,658.21,642.91,645,634.48Z" transform="translate(-279.02 -277.59)"/><path class="cls-2" d="M521.93,582a20.94,20.94,0,0,1-3.3.56c-1.16.18-2.46.83-2.44,2.41,0,2.78,2.47,4.92,3.94,7.64,7.5,13.54,17.86,15,27.61,15,2.77,0,4.14-.08,4.85-1.41s.47-2.88.89-6c3.48.38,10,5.64,11.85,6.71,2.41,1.37,7.22,1.15,8.72,2.14,1.52.81,7.16,9.67,7,10.93.07,5-12,23.48-13.7,26.84l-.07.14,0,.15a1.41,1.41,0,0,0,1.5,1.12h.09a26.7,26.7,0,0,0,4.71-2c7.62-3.71,22.35-11.54,26.12-16.46,1.93-2.59,2.08-8.07,2.1-9.3,0-2.93-1.24-8.53-5.05-11.76l-.41-.34-.31.43c-1.08,1.51-1.83,2.89-3.37,5.52-6.16-14.7-33.33-24.84-43.58-24.9a8.16,8.16,0,0,0-3.64,1.11l-.27.14v2.12l.14.14c1.63,1.64,3.12,3.53,3.06,4.22,0,1.52-.87,1.54-1.81,1.61a18.13,18.13,0,0,1-4.27-2.71,49.61,49.61,0,0,1-5.28-4.56,2.25,2.25,0,0,1,1.55-.57,8.63,8.63,0,0,1,2.24.41l.21.06.19-.12a1.8,1.8,0,0,0,1.27-1.82c-.13-2.54-5.33-7.76-10.85-12.84-2.76-2.5-5.6-4.87-7.91-6.62s-4-2.89-5-3a2.37,2.37,0,0,0-2.18.92,3.46,3.46,0,0,0-.39,1.9c0,2,1.71,4.28,3.32,6.44s3.2,4.21,3.12,4.76S522.43,581.71,521.93,582Z" transform="translate(-279.02 -277.59)"/><path class="cls-2" d="M469.52,674.9l-.53-.36-.21.61c-.51,1.46-.85,2.51-1.15,3.5l-1.08-.09c-3.2-24.33-15.56-29.13-34-29-1.24,0-12.51,1.41-13.58,1.4-3.15,0-6.15-2.18-8.35-5.28A18.92,18.92,0,0,1,407,635.31a19.75,19.75,0,0,1,3.38-10.24c1.7-2.83,3.44-4.66,3.52-6.08,0-1.71-1.48-2.3-2.54-2.93s-2-1.31-2.06-3.14c-.11-6.49,19.76-33,21.73-35.14.44-.53,4.58-4.37,9-8s9.28-7.09,10.67-7c.85-.06,4.76,2.27,6.21,2.33,1.7-.09,5.56-3.26,6.34-3.71h0l.18-.06.65-.2,2.3-.67c1.9-.54,4.45-1.24,7.12-1.94,5.32-1.4,11.2-2.77,13.09-2.76,1,0,8.35,1.85,9.66,1.87,1.68-.17,2.17-2.23,2.66-4.22a28.93,28.93,0,0,0,.59-4.89c-.05-1.45-2.35-5.88-2.3-6.77a4.81,4.81,0,0,1,1.27-3.58,51.5,51.5,0,0,0,4.29-5.6l-.66-.69c-3.83,2.22-7.89,5.05-11.2,7.33s-6,4-6.39,3.92c-.72,0-3.43-1.34-6-2.74s-5.1-2.81-6.44-2.86c-4.72.08-6.11,4.47-10.89,8.68s-12.94,8.68-31,9.2h-.28l-.14.26c-10,18.74-28.94,39.12-39.65,57.92-.82,1.53-5.68,10.71-5.73,14.24a6.87,6.87,0,0,0,.45,2.06l.05.24,1.73.75h.11c2.75-.09,4.39-1.89,5.75-3.5s2.52-3.05,4.13-3c2.8.07,3,1.42,3.06,3.13,0,.78-.1,1.56-.11,2.21,0,5.41-3.2,11-3.22,16.79,0,7.34,4.4,10.55,9.76,11.52l0,1.07c-15.56,1.78-19.91,13.4-19.86,29.17,0,4,4.78,18.18,5.06,19.19,0,.26-.28.49-.73.83a2.17,2.17,0,0,0-1.12,1.67c0,4.37,4.54,11,9.94,16.8s11.71,10.47,15.86,10.53c2.86-.1,6.32-4.15,9.66-8.94s6.22-10.42,7.29-13.82l.19-.62-.65,0c-3.25-.07-10.24-1.9-16.32-5s-11.22-7.43-11.18-12.22c0-1.07,1.38-10.4,1.38-11.67a3.46,3.46,0,0,0-3.16-3.64c-1.63-.32-3.49-.21-4.59-.5-.74-.23-1-.39-1-1,0-5.09,2.33-5.73,7.85-13.06h1.79c1.7,1.29,6,4,9.93,6.9s7.64,6.29,7.52,7.79c0,1-.89,2.59-.92,4,0,2,1.54,3.13,3.22,3.63a18,18,0,0,0,5.09.59c4.08,0,11.15-1.65,14.91-5.71l.67-.74-1-.08c-12.82-1.06-21.46-13.55-29.43-23.45a2.51,2.51,0,0,0-1.39-.79v-1.1c2.34-.39,5.17-.88,7.85-1.23,3.64,5.52,7.69,12.5,12.86,15.57,4.42,2.58,12.28,2.25,15.56,4.9,6.32,4.94,9.15,15.17,14.21,23.34A94.8,94.8,0,0,0,469.21,715l.12.32h2.21l.15-.2c3.92-5.32,5.74-15.27,5.76-20.55C477.4,689.07,474.78,678.58,469.52,674.9Z" transform="translate(-279.02 -277.59)"/><path class="cls-2" d="M381.12,605c17-16.85,34.1-31.18,34.2-42.72-.11-5-6.71-7.46-11.77-7.49-9.4,0-16.84,6-23,11.8s-11.28,11.6-15.37,11.53c-3.11.13-8.1-6.51-9.33-9l-.12-.24-.27,0c-12.79-1.15-20.92-18.23-24.58-29.1l-1,.12-.67,7.37,0,.11c3.23,8.78,6.65,20.17,12.07,27.58,3.18,4.28,9.08,5,12.1,7.42s4.91,6.27,7.57,8.75l.89.82-.07-1.21c0-.1,0-.21,0-.31,0-3.94,3.86-8.6,8.69-12.18s10.52-6.11,13.73-6.09c2.41.07,4.76.69,4.8,4.4.14,13.2-28.89,42.17-37.8,46.77-18.53,9.73-20.67,23-20.63,36.21V702l-2.76,23.17a14.92,14.92,0,0,0,.59,2.84c.44,1.24.88,2.66,2.2,2.78,2.44-.16,5.56-4.55,8.64-9.15a76,76,0,0,0,5.91-10.49c1.68-5.42,3.88-15.62,3.88-21.94l-1.84-28C347.19,641,364.1,621.82,381.12,605Z" transform="translate(-279.02 -277.59)"/><path class="cls-2" d="M347.94,511.94h13.23c1.6-.1,3.54-2.25,5.71-4.34s4.35-4.17,4.93-4.06c8.92,0,17.42,6.64,25.23,13.41s14.88,13.6,21.48,13.65c6.8.11,13.06-1.24,13.78-13.48l0-.53h-3.9c-1.42,0-8.25,1.84-9.22,1.83-8,.14-29.06-21.45-58.44-21.46a92.18,92.18,0,0,0-12.32,1.1c-4.85.81-9.33,1.86-10.72,3.9-1,1.6-6.55,19.32-6.59,24a.31.31,0,0,1,0,.08v5.21l.84-.86C335.5,526.68,340.47,511.79,347.94,511.94Z" transform="translate(-279.02 -277.59)"/><path class="cls-2" d="M445.31,725.63l-.29-.22-33.36,24.72c-1.66-2.19-3.3-6-5-9.39-1.85-3.53-3.68-6.7-6.37-6.79h-10c-6.77.1-10.83-9.35-13-20a144.23,144.23,0,0,1-2.49-25.46l.46-14.44c.46-5.13.63-10.37,1.49-15.34.43-2.76,2.6-6.55,2.66-8s-1.32-1.88-2.13-2.24a2.25,2.25,0,0,1-1.55-2.43c0-.69,2-5.72,3.94-11l.48-1.34-1.21.76c-13.17,8.43-20.72,32.45-20.76,43.05,0,4.28,1.64,5.87,3.15,7.16s2.78,2.35,2.83,6.33l-1.84,19.18c.06,11,10.38,28.72,13.5,37.79.47,1.1,2.13,1.79,3.92,2.54a17.15,17.15,0,0,0,4.47,1.22c1.32,0,12.82-2.82,13.81-2.8,2.16,0,5.32,2.33,7.81,5.3s4.38,6.51,4.36,8.44-2.67,4.52-2.76,6.77c0,1.66,1.47,4.53,3.45,7.16s4.36,4.81,6.78,5h2.13l.05-.43c3-23.48,16.19-40.61,22.64-48.57,2.16-2.74,3.53-4.09,3.66-5.11A1.7,1.7,0,0,0,445.31,725.63Z" transform="translate(-279.02 -277.59)"/><path class="cls-2" d="M492.37,576.52c-5.52,5.08-10.72,10.3-10.85,12.84a1.79,1.79,0,0,0,1.27,1.82l.19.12.21-.06a8.63,8.63,0,0,1,2.24-.41,2.24,2.24,0,0,1,1.54.57,49.3,49.3,0,0,1-5.28,4.56,18.14,18.14,0,0,1-4.28,2.71c-.94-.07-1.76-.09-1.81-1.61-.07-.7,1.43-2.58,3.05-4.22l.14-.14v-2.12l-.27-.14a8.16,8.16,0,0,0-3.64-1.11c-10.25.06-37.42,10.2-43.58,24.9-1.54-2.63-2.29-4-3.37-5.52l-.31-.43-.41.34c-3.82,3.23-5,8.83-5.05,11.76,0,1.23.17,6.71,2.1,9.3,3.77,4.92,18.5,12.76,26.12,16.46a26.67,26.67,0,0,0,4.71,2h.09a1.4,1.4,0,0,0,1.49-1.12l0-.15-.07-.14c-1.67-3.37-13.77-21.85-13.7-26.84-.14-1.27,5.5-10.12,7-10.93,1.5-1,6.31-.77,8.72-2.14,1.81-1.07,8.37-6.33,11.85-6.71.41,3.14.32,4.84.88,6s2.09,1.41,4.86,1.41c9.75,0,20.11-1.47,27.6-15,1.48-2.72,3.9-4.86,3.94-7.64,0-1.58-1.27-2.23-2.44-2.41a20.92,20.92,0,0,1-3.3-.56c-.5-.24-.68-.41-.71-1s1.5-2.66,3.12-4.76,3.29-4.46,3.32-6.44a3.45,3.45,0,0,0-.39-1.9,2.37,2.37,0,0,0-2.17-.92c-1,.07-2.6,1.2-5,3S495.13,574,492.37,576.52Z" transform="translate(-279.02 -277.59)"/><path class="cls-4" d="M579.81,654.26c-1.42,5.26-.06,8.35-4.91,8.35-2.05,0-2.7-.56-4.61-4.75a54,54,0,0,0-3.89,5.46c5.06,5.2,5.31,5.81,9.2,5.81,3.35,0,10.12-2.22,10.09-6.71v-8.21C582.54,654.21,581.56,654.21,579.81,654.26Z" transform="translate(-279.02 -277.59)"/><path class="cls-4" d="M444.19,654.26c1.42,5.26.06,8.35,4.92,8.35,2.05,0,2.7-.56,4.61-4.75a53.16,53.16,0,0,1,3.89,5.46c-5.06,5.2-5.31,5.81-9.2,5.81-3.35,0-10.12-2.22-10.09-6.71v-8.21C441.46,654.21,442.44,654.21,444.19,654.26Z" transform="translate(-279.02 -277.59)"/><path class="cls-4" d="M578.67,684.86a5.71,5.71,0,0,0,.63.63l.07,0C579.12,685.28,578.91,685.06,578.67,684.86Z" transform="translate(-279.02 -277.59)"/><path class="cls-4" d="M607.46,659.7a2.52,2.52,0,0,1,1.39-.79v-1.1c-2.34-.39-5.17-.88-7.85-1.23-3.65,5.52-7.69,12.5-12.85,15.57-4.42,2.58-12.28,2.25-15.57,4.9-3.75,2.93-6.27,7.73-8.76,12.85a30.71,30.71,0,0,1,13.45-6.76l.41-.09,0,.12.3,0C590.85,682.09,599.49,669.6,607.46,659.7Z" transform="translate(-279.02 -277.59)"/><path class="cls-4" d="M591.46,649.52c1.24,0,12.51,1.41,13.58,1.4,3.15,0,6.15-2.18,8.35-5.28A18.91,18.91,0,0,0,617,635.31a19.76,19.76,0,0,0-3.38-10.24c-1.7-2.83-3.44-4.66-3.53-6.08a2.87,2.87,0,0,1,1.75-2.48,3.44,3.44,0,0,1,1.25-.74,3.06,3.06,0,0,0,1.61-2.85c0-2.65-3.25-8.66-7.3-15-.44-.43-.81-.78-1.09-1l-.5-.2c-2.73-1.12-30.77-13.92-37.95-13.88-2,0-4.56.84-4.57,4.18a27.41,27.41,0,0,0,3.07,6.11l.06.07,0,.09.14.38c10.79,4.32,22.39,11.59,26.15,20.56,1.54-2.63,2.29-4,3.37-5.52l.31-.43.41.34c3.82,3.23,5,8.83,5.05,11.76,0,1.23-.17,6.71-2.1,9.3-3.77,4.92-18.5,12.76-26.12,16.46a26.7,26.7,0,0,1-4.71,2h-.09a1.43,1.43,0,0,1-1.45-1c-4.34,4.29-11.07,9.32-11,14.93,0,.89,1.84,7.77,2.22,10.12C563,653.37,574.73,649.43,591.46,649.52Z" transform="translate(-279.02 -277.59)"/><path class="cls-4" d="M612.34,750.14c1.66-2.19,3.3-6,5-9.39,1.85-3.53,3.68-6.7,6.37-6.79h10c6.77.1,10.83-9.35,13-20a144.29,144.29,0,0,0,2.49-25.46l-.46-14.44c-.43-4.81-.63-9.7-1.36-14.38l-.4,0c-5.34.33-7.28,3.57-8.23,7.78s-.59,9.16-1.19,12.46l-.13.72-.08,0a63.83,63.83,0,0,1,.4,7.64c0,4-4.78,18.18-5.07,19.19,0,.26.28.49.73.83a2.16,2.16,0,0,1,1.11,1.67c0,4.37-4.53,11-9.94,16.8-4.05,4.25-8.56,8-12.3,9.62l.11.1-.54.07a8.85,8.85,0,0,1-3.13.73l-.16,0a32,32,0,0,1-4.6,1c-5.28,0-11.1-3-16.81-6.78h0Z" transform="translate(-279.02 -277.59)"/><path class="cls-4" d="M445.33,684.86c-.23.2-.45.42-.7.61l.07,0A6.09,6.09,0,0,0,445.33,684.86Z" transform="translate(-279.02 -277.59)"/><path class="cls-4" d="M451.42,677.06c-3.29-2.65-11.14-2.32-15.56-4.9-5.16-3.07-9.21-10.05-12.86-15.57-2.68.36-5.51.85-7.85,1.23v1.1a2.51,2.51,0,0,1,1.39.79c8,9.9,16.61,22.39,29.43,23.45l.3,0,0-.12.41.09a30.7,30.7,0,0,1,13.45,6.76C457.69,684.79,455.17,680,451.42,677.06Z" transform="translate(-279.02 -277.59)"/><path class="cls-4" d="M410.94,615.77a3.42,3.42,0,0,1,1.25.74,2.87,2.87,0,0,1,1.75,2.48c-.09,1.42-1.83,3.26-3.52,6.08A19.75,19.75,0,0,0,407,635.31a18.92,18.92,0,0,0,3.58,10.33c2.2,3.1,5.2,5.29,8.35,5.28,1.07,0,12.34-1.4,13.58-1.4,16.73-.08,28.45,3.86,32.88,22.74.38-2.35,2.24-9.23,2.22-10.12.06-5.61-6.66-10.64-11-14.93a1.43,1.43,0,0,1-1.45,1h-.09a26.67,26.67,0,0,1-4.71-2c-7.62-3.71-22.35-11.54-26.12-16.46-1.93-2.59-2.08-8.07-2.1-9.3,0-2.93,1.24-8.53,5.05-11.76l.41-.34.31.43c1.08,1.51,1.83,2.89,3.37,5.52,3.76-9,15.35-16.24,26.15-20.56l.14-.38,0-.09.06-.07a27.45,27.45,0,0,0,3.07-6.11c0-3.34-2.55-4.13-4.57-4.18-7.18,0-35.22,12.76-37.95,13.88l-.5.2c-.28.23-.65.58-1.08,1-4,6.32-7.35,12.32-7.3,15A3.06,3.06,0,0,0,410.94,615.77Z" transform="translate(-279.02 -277.59)"/><path class="cls-4" d="M415.45,737.26l-.16,0a8.85,8.85,0,0,1-3.13-.73l-.54-.07.11-.1c-3.75-1.64-8.25-5.36-12.3-9.62-5.41-5.76-9.9-12.43-9.94-16.8a2.17,2.17,0,0,1,1.12-1.67c.45-.34.71-.58.73-.83-.28-1-5-15.15-5.06-19.19a64.84,64.84,0,0,1,.4-7.64l-.08,0-.13-.72c-.6-3.29-.28-8.26-1.19-12.46s-2.89-7.45-8.23-7.78l-.4,0c-.72,4.69-.92,9.58-1.35,14.38l-.46,14.44A144.23,144.23,0,0,0,377.32,714c2.13,10.61,6.18,20.06,13,20h10c2.7.09,4.52,3.26,6.37,6.79,1.71,3.36,3.35,7.2,5,9.39l25.24-18.71h0c-5.71,3.8-11.53,6.76-16.81,6.78A32,32,0,0,1,415.45,737.26Z" transform="translate(-279.02 -277.59)"/><path class="cls-3" d="M418.88,930.77c0,6-5.44,10.87-12.14,10.87s-12.14-4.87-12.14-10.87v-53H381.46v55c0,12.65,11.45,22.9,25.57,22.9s25.57-10.25,25.57-22.9v-55H418.88Z" transform="translate(-279.02 -277.59)"/><path class="cls-3" d="M472.32,877.77l-28.6,76H458l5.23-16.27H497l5.23,16.27h14.3l-28.6-76Zm-3.91,47,11.72-30.92,11.53,30.92Z" transform="translate(-279.02 -277.59)"/><polygon class="cls-3" points="295.87 649.23 264.01 600.18 248.9 600.18 248.9 676.2 264.01 676.2 264.01 627.84 296.33 676.2 310.28 676.2 310.28 600.18 295.87 600.18 295.87 649.23"/><polygon class="cls-3" points="343.29 663.41 343.29 600.18 327.95 600.18 327.95 676.2 363.52 676.2 363.52 663.41 343.29 663.41"/></svg>