<?xml version="1.0" encoding="utf-8"?>
<!-- Generator: Adobe Illustrator 27.1.1, SVG Export Plug-In . SVG Version: 6.00 Build 0)  -->
<svg version="1.1" id="Capa_1" xmlns="http://www.w3.org/2000/svg" xmlns:xlink="http://www.w3.org/1999/xlink" x="0px" y="0px"
	 viewBox="0 0 612 792" style="enable-background:new 0 0 612 792;" xml:space="preserve">
<style type="text/css">
	.st0{fill:#FFFFFF;stroke:#FFFFFF;stroke-miterlimit:10;}
	.st1{fill:#23214B;}
	.st2{fill:#CE1420;}
	.st3{fill:#0B613D;}
	.st4{fill:#2B2523;stroke:#000000;stroke-miterlimit:10;}
</style>
<g>
	<circle class="st0" cx="302.44" cy="391.77" r="297.19"/>
	<path class="st1" d="M81.33,390.4c0.25-121.4,98.73-219.74,220.2-219.74S521.47,269,521.72,390.4h65.88
		c-0.25-157.79-128.23-285.63-286.08-285.63S15.69,232.61,15.45,390.4H81.33z"/>
	<path class="st2" d="M587.6,390.69h-65.88c-0.16,77.96-40.83,146.4-102.07,185.4l31.08,58.27
		C532.7,584.15,587.44,493.82,587.6,390.69z"/>
	<path class="st3" d="M81.33,390.69H15.45C15.6,491.1,67.5,579.38,145.9,630.3l37.29-54.34C122.06,536.93,81.49,468.56,81.33,390.69
		z"/>
	<g>
		<path class="st0" d="M60.21,330.66l4.93,0.98c5.94,1.18,8.59,5.62,7.14,12.87c-1.45,7.26-5.59,10.34-11.53,9.16l-19.31-3.85
			c-5.94-1.18-8.59-5.62-7.14-12.87c1.45-7.26,5.59-10.34,11.53-9.16l3.61,0.72l-1.39,6.99l-3.98-0.79
			c-2.65-0.53-3.96,0.75-4.42,3.1c-0.47,2.35,0.24,4.03,2.9,4.56l20.06,3.99c2.65,0.53,3.9-0.76,4.37-3.11
			c0.47-2.35-0.19-4.02-2.84-4.55l-5.31-1.06L60.21,330.66z"/>
		<path class="st0" d="M48.67,289.56l3.02-6.9l29.73,13.03l4.97-11.35l4.96,2.17l-8,18.25L48.67,289.56z"/>
		<path class="st0" d="M79.32,233.43l23.62,17.18c2.19,1.59,3.86,0.94,5.27-0.99c1.41-1.94,1.51-3.73-0.68-5.32l-23.62-17.18
			l4.19-5.76l23.32,16.96c4.9,3.56,5.44,8.7,1.09,14.68c-4.35,5.98-9.41,7.04-14.31,3.48l-23.32-16.96L79.32,233.43z"/>
		<path class="st0" d="M137.38,184.16l0.89,1.02c2.56,2.94,3.05,5.81,1.34,8.95c3.87-1.71,6.94-0.58,9.56,2.44l2.03,2.33
			c3.84,4.4,2.95,9.34-2.73,14.28l-8.94,7.78l-24.86-28.57l8.58-7.46C129.13,179.79,133.54,179.75,137.38,184.16z M123.9,191.51
			l6.57,7.55l2.22-1.93c2.12-1.84,2.77-3.7,0.78-5.99l-1.39-1.59c-1.78-2.04-3.44-2.17-5.45-0.42L123.9,191.51z M134.02,203.14
			l7.64,8.77l3.25-2.83c1.91-1.66,2.34-3.26,0.49-5.38l-2.17-2.49c-2.31-2.65-4.1-2.53-6.69-0.28L134.02,203.14z"/>
		<path class="st0" d="M201.45,137.13l11.26-3.91c7.12-2.47,11.69-0.57,13.68,5.15l6.28,18.09c1.99,5.72-0.42,10.05-7.54,12.53
			l-11.26,3.91L201.45,137.13z M210.35,139.77l8.88,25.55l4.01-1.39c2.26-0.79,3.3-2.18,2.42-4.73l-6.46-18.6
			c-0.89-2.56-2.57-3-4.83-2.22L210.35,139.77z"/>
		<path class="st0" d="M270.25,136.26l10.27-1.24l0.65,5.37l-10.27,1.23l1.32,11.01l12.92-1.56l0.65,5.37l-20.4,2.45l-4.52-37.59
			l20.4-2.46l0.65,5.37l-12.92,1.55L270.25,136.26z"/>
		<path class="st0" d="M341.2,130.4l-0.51,4.9c-0.63,6.03-4.65,8.92-12.14,8.14l-3.54-0.37l-1.48,14.15l-7.49-0.78l3.94-37.66
			l11.03,1.15C338.5,120.71,341.83,124.37,341.2,130.4z M326.9,124.93l-1.34,12.75l3.54,0.37c2.38,0.25,3.77-0.48,4.05-3.17
			l0.59-5.65c0.28-2.69-0.92-3.69-3.31-3.94L326.9,124.93z"/>
		<path class="st0" d="M375.37,137.72c1.95-5.74,6.9-7.71,13.9-5.32c7,2.38,9.71,6.96,7.76,12.7l-6.35,18.64
			c-1.95,5.74-6.9,7.71-13.9,5.33c-7-2.38-9.71-6.96-7.76-12.7L375.37,137.72z M376.03,159.15c-0.87,2.56,0.22,4.02,2.49,4.79
			c2.27,0.77,4.03,0.29,4.9-2.27l6.59-19.36c0.87-2.56-0.22-4.02-2.49-4.79c-2.27-0.77-4.03-0.29-4.9,2.27L376.03,159.15z"/>
		<path class="st0" d="M428.66,193.69c0.16-1.04,0.24-1.69,1.87-4.32l3.13-5.06c1.85-2.99,1.25-4.89-1.66-6.69l-2.21-1.37
			l-8.11,13.11l-6.41-3.97l19.93-32.21l9.67,5.98c6.64,4.11,7.98,8.32,4.91,13.28L448.2,175c-2.05,3.31-4.73,4.65-8.24,3.94
			c2.55,3.04,2.09,6.13,0.01,9.49l-3.07,4.97c-0.97,1.56-1.62,2.75-1.72,4.34L428.66,193.69z M438.75,161.76l-6.12,9.89l2.5,1.55
			c2.39,1.48,4.36,1.55,5.95-1.02l1.96-3.17c1.42-2.3,1.06-3.93-1.21-5.33L438.75,161.76z"/>
		<path class="st0" d="M483.24,187.62l16.67,16.26l-3.78,3.87l-5.64-5.5l-22.67,23.24l-5.39-5.26l22.67-23.24l-5.64-5.5
			L483.24,187.62z"/>
		<path class="st0" d="M522.41,231.52l4.32,6.17L495.7,259.4l-4.32-6.18L522.41,231.52z"/>
		<path class="st0" d="M522.39,293.47l30.59-7.18l2.79,6.33l-37.64,8.49l-4.53-10.28l31.67-22.02l3.06,6.96L522.39,293.47z"/>
		<path class="st0" d="M557.65,329.72c5.95-1.13,10.11,2.19,11.49,9.45c1.38,7.27-1.26,11.88-7.21,13.02l-19.34,3.69
			c-5.95,1.13-10.11-2.19-11.49-9.45c-1.38-7.27,1.26-11.88,7.21-13.02L557.65,329.72z M539.34,340.88
			c-2.66,0.51-3.39,2.18-2.94,4.53c0.45,2.35,1.74,3.64,4.4,3.14l20.09-3.83c2.66-0.51,3.38-2.18,2.94-4.53
			c-0.45-2.36-1.74-3.64-4.4-3.14L539.34,340.88z"/>
	</g>
	<g>
		<path class="st0" d="M75.71,448.94l6.86,22.25l-5.17,1.59l-2.32-7.52l-31.02,9.56l-2.22-7.2l31.02-9.56l-2.32-7.53L75.71,448.94z"
			/>
		<path class="st0" d="M109.61,539.19c4.63-3.91,9.88-3.06,14.66,2.59c4.77,5.65,4.74,10.97,0.11,14.88l-15.04,12.71
			c-4.63,3.91-9.88,3.06-14.66-2.59c-4.77-5.65-4.74-10.97-0.11-14.88L109.61,539.19z M99.15,557.89c-2.07,1.75-1.88,3.56-0.33,5.39
			c1.55,1.83,3.3,2.32,5.37,0.57l15.62-13.19c2.06-1.74,1.88-3.56,0.33-5.39c-1.55-1.83-3.31-2.32-5.37-0.57L99.15,557.89z"/>
	</g>
	<g>
		<path class="st4" d="M250.57,617.96l7.42,1.3l-5.61,31.97l12.21,2.14l-0.93,5.33l-19.63-3.44L250.57,617.96z"/>
		<path class="st4" d="M349.99,617.56l6.74,28.43c0.62,2.63,2.31,3.23,4.65,2.68c2.33-0.55,3.57-1.85,2.95-4.48l-6.74-28.43
			l6.93-1.64l6.65,28.06c1.4,5.9-1.53,10.15-8.73,11.86c-7.2,1.71-11.73-0.78-13.13-6.68l-6.65-28.06L349.99,617.56z"/>
	</g>
	<g>
		<path class="st0" d="M503.28,549.76l3.83,3.26c4.61,3.93,4.75,9.1-0.05,14.73c-4.8,5.63-9.92,6.3-14.53,2.36l-14.98-12.78
			c-4.61-3.94-4.75-9.1,0.05-14.73c4.8-5.63,9.92-6.3,14.53-2.36l2.8,2.39l-4.62,5.42l-3.08-2.63c-2.06-1.76-3.82-1.28-5.38,0.55
			c-1.55,1.82-1.75,3.64,0.31,5.39l15.55,13.28c2.06,1.75,3.78,1.24,5.33-0.58c1.55-1.82,1.79-3.6-0.26-5.36l-4.11-3.51
			L503.28,549.76z"/>
		<path class="st0" d="M563.99,456.77l-2.18,7.28l-6.96-0.73l-2.66,8.85l6.21,3.22l-1.99,6.62l-34.07-18.23l3.17-10.56
			L563.99,456.77z M547.55,469.78l2.08-6.95l-19.39-2.03L547.55,469.78z"/>
	</g>
	<g>
		<path class="st2" d="M462.72,452.75C438.13,515.88,376.8,560.61,305,560.61c-93.48,0-169.25-75.78-169.25-169.26
			c0-93.47,75.77-169.26,169.25-169.26c72.45,0,134.22,45.52,158.38,109.52h33.36C471.33,249.9,395.08,190.57,305,190.57
			c-110.89,0-200.79,89.9-200.79,200.79c0,110.88,89.9,200.8,200.79,200.8c89.48,0,165.23-58.55,191.19-139.4H462.72z"/>
		<path class="st2" d="M309.97,248.33v33.59c6.83,0.2,13.48,1.03,19.91,2.42v214.01v33.9c14.09-2.48,27.47-6.97,39.83-13.26v-38.16
			V301.87c10.51,7.43,19.68,16.64,27.02,27.24h37.17C411.42,282.66,364.59,250.2,309.97,248.33z"/>
		<path class="st2" d="M225.34,314.56c9.83-10.4,21.65-18.87,34.85-24.79v199.86c-13.2-5.92-25.02-14.39-34.85-24.79V314.56z
			 M298.19,264.33c-0.07-7.74-6.36-14.02-14.12-14.02c-0.54,0-1.07,0.07-1.59,0.14c-0.31,0.05-0.63,0.11-0.96,0.16
			c-0.45,0.09-0.89,0.15-1.34,0.23c-43.77,7.68-80.68,35.31-101,73.15c-0.46,1.41-0.76,2.9-0.76,4.5c0,7.61,5.7,13.79,12.71,13.79
			c1.04,0,2.04-0.18,3.01-0.43v87.19v3.8v8.5c-0.97-0.27-1.97-0.44-3.01-0.44c-7.02,0-12.71,6.19-12.71,13.81
			c0,1.23,0.21,2.39,0.49,3.5c20.27,38.08,57.3,65.91,101.24,73.62c0.46,0.09,0.92,0.17,1.4,0.25c0.28,0.04,0.58,0.1,0.86,0.13
			c0.53,0.09,1.08,0.15,1.63,0.15c7.8,0,14.13-6.3,14.13-14.11c0-0.16,0.02-253.34,0.02-253.34v-0.37c0-0.04,0.01-0.07,0.01-0.11
			C298.2,264.41,298.19,264.37,298.19,264.33z"/>
	</g>
</g>
</svg>
